M48
; DRILL file {KiCad 9.0.3} date 2025-07-26T23:46:37+0200
; FORMAT={-:-/ absolute / metric / decimal}
; #@! TF.CreationDate,2025-07-26T23:46:37+02:00
; #@! TF.GenerationSoftware,Kicad,Pcbnew,9.0.3
; #@! TF.FileFunction,Plated,1,2,PTH
FMAT,2
METRIC
; #@! TA.AperFunction,Plated,PTH,ViaDrill
T1C0.300
; #@! TA.AperFunction,Plated,PTH,ComponentDrill
T2C0.600
; #@! TA.AperFunction,Plated,PTH,ComponentDrill
T3C0.635
; #@! TA.AperFunction,Plated,PTH,ComponentDrill
T4C0.800
; #@! TA.AperFunction,Plated,PTH,ComponentDrill
T5C0.900
; #@! TA.AperFunction,Plated,PTH,ComponentDrill
T6C1.000
%
G90
G05
T1
X171.4Y-103.6
X177.6Y-86.0
T2
X152.5Y-82.5
X154.0Y-82.5
X164.5Y-82.0
X166.0Y-82.0
T3
X165.6Y-100.2
X167.33Y-100.2
X169.1Y-100.2
T4
X152.38Y-89.0
X156.19Y-94.0
X159.0Y-78.0
X159.0Y-85.62
X160.0Y-89.0
X160.6Y-99.4
X160.6Y-107.02
X163.8Y-107.0
X163.81Y-94.0
X164.0Y-88.0
X164.0Y-90.5
X166.5Y-95.0
X168.5Y-78.0
X169.0Y-95.0
X169.95Y-73.4
X170.0Y-83.38
X170.0Y-91.0
X171.0Y-78.0
X171.42Y-107.0
X172.45Y-73.4
X173.38Y-78.0
X173.9Y-99.8
X173.95Y-95.0
X175.0Y-83.38
X175.0Y-91.0
X175.15Y-104.15
X175.15Y-106.65
X176.4Y-99.8
X176.45Y-95.0
X176.99Y-73.4
X180.0Y-81.0
X180.0Y-88.62
X181.0Y-78.0
X184.38Y-85.38
X184.38Y-87.92
X184.38Y-90.46
X184.38Y-93.0
X184.61Y-73.4
X185.0Y-78.0
X186.6Y-101.18
X186.6Y-108.8
X187.5Y-78.0
X189.18Y-98.8
X190.0Y-72.35
X190.0Y-74.85
X192.0Y-85.38
X192.0Y-87.92
X192.0Y-90.46
X192.0Y-93.0
X195.6Y-74.09
X195.6Y-81.71
X196.8Y-88.15
X196.8Y-90.65
X196.8Y-98.8
T5
X180.46Y-98.8
X180.46Y-103.4
X183.0Y-98.8
X183.0Y-103.4
T6
X152.282Y-93.755
X152.282Y-96.295
X152.5Y-72.5
X155.04Y-72.5
X160.92Y-72.575
X163.46Y-72.575
X166.0Y-72.575
X168.6Y-111.4
X171.14Y-111.4
X173.68Y-111.4
X177.86Y-111.4
X180.4Y-111.4
X182.94Y-111.4
X192.505Y-111.682
X195.045Y-111.682
M30
