%TF.GenerationSoftware,KiCad,Pcbnew,9.0.3*%
%TF.CreationDate,2025-07-26T23:45:01+02:00*%
%TF.ProjectId,bone_xl_distortion,626f6e65-5f78-46c5-9f64-6973746f7274,v1.0.0*%
%TF.SameCoordinates,Original*%
%TF.FileFunction,Legend,Bot*%
%TF.FilePolarity,Positive*%
%FSLAX46Y46*%
G04 Gerber Fmt 4.6, Leading zero omitted, Abs format (unit mm)*
G04 Created by KiCad (PCBNEW 9.0.3) date 2025-07-26 23:45:01*
%MOMM*%
%LPD*%
G01*
G04 APERTURE LIST*
G04 Aperture macros list*
%AMRoundRect*
0 Rectangle with rounded corners*
0 $1 Rounding radius*
0 $2 $3 $4 $5 $6 $7 $8 $9 X,Y pos of 4 corners*
0 Add a 4 corners polygon primitive as box body*
4,1,4,$2,$3,$4,$5,$6,$7,$8,$9,$2,$3,0*
0 Add four circle primitives for the rounded corners*
1,1,$1+$1,$2,$3*
1,1,$1+$1,$4,$5*
1,1,$1+$1,$6,$7*
1,1,$1+$1,$8,$9*
0 Add four rect primitives between the rounded corners*
20,1,$1+$1,$2,$3,$4,$5,0*
20,1,$1+$1,$4,$5,$6,$7,0*
20,1,$1+$1,$6,$7,$8,$9,0*
20,1,$1+$1,$8,$9,$2,$3,0*%
G04 Aperture macros list end*
%ADD10C,0.100000*%
%ADD11C,0.300000*%
%ADD12C,0.375000*%
%ADD13C,0.000000*%
%ADD14C,1.800000*%
%ADD15C,1.600000*%
%ADD16RoundRect,0.250000X-0.550000X-0.550000X0.550000X-0.550000X0.550000X0.550000X-0.550000X0.550000X0*%
%ADD17R,1.143000X1.143000*%
%ADD18C,1.143000*%
%ADD19R,1.800000X1.800000*%
%ADD20RoundRect,0.250000X-0.350000X-0.350000X0.350000X-0.350000X0.350000X0.350000X-0.350000X0.350000X0*%
%ADD21C,1.200000*%
%ADD22C,2.100000*%
G04 APERTURE END LIST*
D10*
X198642856Y-115290752D02*
X198404761Y-115957419D01*
X198404761Y-115957419D02*
X198166666Y-115290752D01*
X197261904Y-115957419D02*
X197833332Y-115957419D01*
X197547618Y-115957419D02*
X197547618Y-114957419D01*
X197547618Y-114957419D02*
X197642856Y-115100276D01*
X197642856Y-115100276D02*
X197738094Y-115195514D01*
X197738094Y-115195514D02*
X197833332Y-115243133D01*
X196833332Y-115862180D02*
X196785713Y-115909800D01*
X196785713Y-115909800D02*
X196833332Y-115957419D01*
X196833332Y-115957419D02*
X196880951Y-115909800D01*
X196880951Y-115909800D02*
X196833332Y-115862180D01*
X196833332Y-115862180D02*
X196833332Y-115957419D01*
X196166666Y-114957419D02*
X196071428Y-114957419D01*
X196071428Y-114957419D02*
X195976190Y-115005038D01*
X195976190Y-115005038D02*
X195928571Y-115052657D01*
X195928571Y-115052657D02*
X195880952Y-115147895D01*
X195880952Y-115147895D02*
X195833333Y-115338371D01*
X195833333Y-115338371D02*
X195833333Y-115576466D01*
X195833333Y-115576466D02*
X195880952Y-115766942D01*
X195880952Y-115766942D02*
X195928571Y-115862180D01*
X195928571Y-115862180D02*
X195976190Y-115909800D01*
X195976190Y-115909800D02*
X196071428Y-115957419D01*
X196071428Y-115957419D02*
X196166666Y-115957419D01*
X196166666Y-115957419D02*
X196261904Y-115909800D01*
X196261904Y-115909800D02*
X196309523Y-115862180D01*
X196309523Y-115862180D02*
X196357142Y-115766942D01*
X196357142Y-115766942D02*
X196404761Y-115576466D01*
X196404761Y-115576466D02*
X196404761Y-115338371D01*
X196404761Y-115338371D02*
X196357142Y-115147895D01*
X196357142Y-115147895D02*
X196309523Y-115052657D01*
X196309523Y-115052657D02*
X196261904Y-115005038D01*
X196261904Y-115005038D02*
X196166666Y-114957419D01*
X195404761Y-115862180D02*
X195357142Y-115909800D01*
X195357142Y-115909800D02*
X195404761Y-115957419D01*
X195404761Y-115957419D02*
X195452380Y-115909800D01*
X195452380Y-115909800D02*
X195404761Y-115862180D01*
X195404761Y-115862180D02*
X195404761Y-115957419D01*
X194738095Y-114957419D02*
X194642857Y-114957419D01*
X194642857Y-114957419D02*
X194547619Y-115005038D01*
X194547619Y-115005038D02*
X194500000Y-115052657D01*
X194500000Y-115052657D02*
X194452381Y-115147895D01*
X194452381Y-115147895D02*
X194404762Y-115338371D01*
X194404762Y-115338371D02*
X194404762Y-115576466D01*
X194404762Y-115576466D02*
X194452381Y-115766942D01*
X194452381Y-115766942D02*
X194500000Y-115862180D01*
X194500000Y-115862180D02*
X194547619Y-115909800D01*
X194547619Y-115909800D02*
X194642857Y-115957419D01*
X194642857Y-115957419D02*
X194738095Y-115957419D01*
X194738095Y-115957419D02*
X194833333Y-115909800D01*
X194833333Y-115909800D02*
X194880952Y-115862180D01*
X194880952Y-115862180D02*
X194928571Y-115766942D01*
X194928571Y-115766942D02*
X194976190Y-115576466D01*
X194976190Y-115576466D02*
X194976190Y-115338371D01*
X194976190Y-115338371D02*
X194928571Y-115147895D01*
X194928571Y-115147895D02*
X194880952Y-115052657D01*
X194880952Y-115052657D02*
X194833333Y-115005038D01*
X194833333Y-115005038D02*
X194738095Y-114957419D01*
X183571428Y-114957419D02*
X183333333Y-115957419D01*
X183333333Y-115957419D02*
X183142857Y-115243133D01*
X183142857Y-115243133D02*
X182952381Y-115957419D01*
X182952381Y-115957419D02*
X182714286Y-114957419D01*
X181904762Y-115957419D02*
X181904762Y-115433609D01*
X181904762Y-115433609D02*
X181952381Y-115338371D01*
X181952381Y-115338371D02*
X182047619Y-115290752D01*
X182047619Y-115290752D02*
X182238095Y-115290752D01*
X182238095Y-115290752D02*
X182333333Y-115338371D01*
X181904762Y-115909800D02*
X182000000Y-115957419D01*
X182000000Y-115957419D02*
X182238095Y-115957419D01*
X182238095Y-115957419D02*
X182333333Y-115909800D01*
X182333333Y-115909800D02*
X182380952Y-115814561D01*
X182380952Y-115814561D02*
X182380952Y-115719323D01*
X182380952Y-115719323D02*
X182333333Y-115624085D01*
X182333333Y-115624085D02*
X182238095Y-115576466D01*
X182238095Y-115576466D02*
X182000000Y-115576466D01*
X182000000Y-115576466D02*
X181904762Y-115528847D01*
X181523809Y-115290752D02*
X181285714Y-115957419D01*
X181047619Y-115290752D02*
X181285714Y-115957419D01*
X181285714Y-115957419D02*
X181380952Y-116195514D01*
X181380952Y-116195514D02*
X181428571Y-116243133D01*
X181428571Y-116243133D02*
X181523809Y-116290752D01*
X180761904Y-114957419D02*
X180523809Y-115957419D01*
X180523809Y-115957419D02*
X180333333Y-115243133D01*
X180333333Y-115243133D02*
X180142857Y-115957419D01*
X180142857Y-115957419D02*
X179904762Y-114957419D01*
X179095238Y-115957419D02*
X179095238Y-115433609D01*
X179095238Y-115433609D02*
X179142857Y-115338371D01*
X179142857Y-115338371D02*
X179238095Y-115290752D01*
X179238095Y-115290752D02*
X179428571Y-115290752D01*
X179428571Y-115290752D02*
X179523809Y-115338371D01*
X179095238Y-115909800D02*
X179190476Y-115957419D01*
X179190476Y-115957419D02*
X179428571Y-115957419D01*
X179428571Y-115957419D02*
X179523809Y-115909800D01*
X179523809Y-115909800D02*
X179571428Y-115814561D01*
X179571428Y-115814561D02*
X179571428Y-115719323D01*
X179571428Y-115719323D02*
X179523809Y-115624085D01*
X179523809Y-115624085D02*
X179428571Y-115576466D01*
X179428571Y-115576466D02*
X179190476Y-115576466D01*
X179190476Y-115576466D02*
X179095238Y-115528847D01*
X178714285Y-115290752D02*
X178476190Y-115957419D01*
X178238095Y-115290752D02*
X178476190Y-115957419D01*
X178476190Y-115957419D02*
X178571428Y-116195514D01*
X178571428Y-116195514D02*
X178619047Y-116243133D01*
X178619047Y-116243133D02*
X178714285Y-116290752D01*
X177952380Y-114957419D02*
X177714285Y-115957419D01*
X177714285Y-115957419D02*
X177523809Y-115243133D01*
X177523809Y-115243133D02*
X177333333Y-115957419D01*
X177333333Y-115957419D02*
X177095238Y-114957419D01*
X176285714Y-115957419D02*
X176285714Y-115433609D01*
X176285714Y-115433609D02*
X176333333Y-115338371D01*
X176333333Y-115338371D02*
X176428571Y-115290752D01*
X176428571Y-115290752D02*
X176619047Y-115290752D01*
X176619047Y-115290752D02*
X176714285Y-115338371D01*
X176285714Y-115909800D02*
X176380952Y-115957419D01*
X176380952Y-115957419D02*
X176619047Y-115957419D01*
X176619047Y-115957419D02*
X176714285Y-115909800D01*
X176714285Y-115909800D02*
X176761904Y-115814561D01*
X176761904Y-115814561D02*
X176761904Y-115719323D01*
X176761904Y-115719323D02*
X176714285Y-115624085D01*
X176714285Y-115624085D02*
X176619047Y-115576466D01*
X176619047Y-115576466D02*
X176380952Y-115576466D01*
X176380952Y-115576466D02*
X176285714Y-115528847D01*
X175904761Y-115290752D02*
X175666666Y-115957419D01*
X175428571Y-115290752D02*
X175666666Y-115957419D01*
X175666666Y-115957419D02*
X175761904Y-116195514D01*
X175761904Y-116195514D02*
X175809523Y-116243133D01*
X175809523Y-116243133D02*
X175904761Y-116290752D01*
D11*
X176821427Y-85749757D02*
X176964285Y-85678328D01*
X176964285Y-85678328D02*
X177178570Y-85678328D01*
X177178570Y-85678328D02*
X177392856Y-85749757D01*
X177392856Y-85749757D02*
X177535713Y-85892614D01*
X177535713Y-85892614D02*
X177607142Y-86035471D01*
X177607142Y-86035471D02*
X177678570Y-86321185D01*
X177678570Y-86321185D02*
X177678570Y-86535471D01*
X177678570Y-86535471D02*
X177607142Y-86821185D01*
X177607142Y-86821185D02*
X177535713Y-86964042D01*
X177535713Y-86964042D02*
X177392856Y-87106900D01*
X177392856Y-87106900D02*
X177178570Y-87178328D01*
X177178570Y-87178328D02*
X177035713Y-87178328D01*
X177035713Y-87178328D02*
X176821427Y-87106900D01*
X176821427Y-87106900D02*
X176749999Y-87035471D01*
X176749999Y-87035471D02*
X176749999Y-86535471D01*
X176749999Y-86535471D02*
X177035713Y-86535471D01*
X175892856Y-85678328D02*
X175892856Y-86035471D01*
X176249999Y-85892614D02*
X175892856Y-86035471D01*
X175892856Y-86035471D02*
X175535713Y-85892614D01*
X176107142Y-86321185D02*
X175892856Y-86035471D01*
X175892856Y-86035471D02*
X175678570Y-86321185D01*
X174749999Y-85678328D02*
X174749999Y-86035471D01*
X175107142Y-85892614D02*
X174749999Y-86035471D01*
X174749999Y-86035471D02*
X174392856Y-85892614D01*
X174964285Y-86321185D02*
X174749999Y-86035471D01*
X174749999Y-86035471D02*
X174535713Y-86321185D01*
X173607142Y-85678328D02*
X173607142Y-86035471D01*
X173964285Y-85892614D02*
X173607142Y-86035471D01*
X173607142Y-86035471D02*
X173249999Y-85892614D01*
X173821428Y-86321185D02*
X173607142Y-86035471D01*
X173607142Y-86035471D02*
X173392856Y-86321185D01*
X156821427Y-104249757D02*
X156964285Y-104178328D01*
X156964285Y-104178328D02*
X157178570Y-104178328D01*
X157178570Y-104178328D02*
X157392856Y-104249757D01*
X157392856Y-104249757D02*
X157535713Y-104392614D01*
X157535713Y-104392614D02*
X157607142Y-104535471D01*
X157607142Y-104535471D02*
X157678570Y-104821185D01*
X157678570Y-104821185D02*
X157678570Y-105035471D01*
X157678570Y-105035471D02*
X157607142Y-105321185D01*
X157607142Y-105321185D02*
X157535713Y-105464042D01*
X157535713Y-105464042D02*
X157392856Y-105606900D01*
X157392856Y-105606900D02*
X157178570Y-105678328D01*
X157178570Y-105678328D02*
X157035713Y-105678328D01*
X157035713Y-105678328D02*
X156821427Y-105606900D01*
X156821427Y-105606900D02*
X156749999Y-105535471D01*
X156749999Y-105535471D02*
X156749999Y-105035471D01*
X156749999Y-105035471D02*
X157035713Y-105035471D01*
X155892856Y-104178328D02*
X155892856Y-104535471D01*
X156249999Y-104392614D02*
X155892856Y-104535471D01*
X155892856Y-104535471D02*
X155535713Y-104392614D01*
X156107142Y-104821185D02*
X155892856Y-104535471D01*
X155892856Y-104535471D02*
X155678570Y-104821185D01*
X154749999Y-104178328D02*
X154749999Y-104535471D01*
X155107142Y-104392614D02*
X154749999Y-104535471D01*
X154749999Y-104535471D02*
X154392856Y-104392614D01*
X154964285Y-104821185D02*
X154749999Y-104535471D01*
X154749999Y-104535471D02*
X154535713Y-104821185D01*
X153607142Y-104178328D02*
X153607142Y-104535471D01*
X153964285Y-104392614D02*
X153607142Y-104535471D01*
X153607142Y-104535471D02*
X153249999Y-104392614D01*
X153821428Y-104821185D02*
X153607142Y-104535471D01*
X153607142Y-104535471D02*
X153392856Y-104821185D01*
D12*
X184571428Y-103368595D02*
X184142856Y-103844785D01*
X184142856Y-103844785D02*
X183999999Y-104320976D01*
X183999999Y-104320976D02*
X183857142Y-105273357D01*
X183857142Y-105273357D02*
X183857142Y-106701928D01*
X183857142Y-106701928D02*
X183999999Y-107654309D01*
X183999999Y-107654309D02*
X184142856Y-108130500D01*
X184142856Y-108130500D02*
X184428571Y-108606690D01*
X184428571Y-108606690D02*
X185571428Y-108606690D01*
X185571428Y-108606690D02*
X185571428Y-98606690D01*
X185571428Y-98606690D02*
X184571428Y-98606690D01*
X184571428Y-98606690D02*
X184285714Y-99082880D01*
X184285714Y-99082880D02*
X184142856Y-99559071D01*
X184142856Y-99559071D02*
X183999999Y-100511452D01*
X183999999Y-100511452D02*
X183999999Y-101463833D01*
X183999999Y-101463833D02*
X184142856Y-102416214D01*
X184142856Y-102416214D02*
X184285714Y-102892404D01*
X184285714Y-102892404D02*
X184571428Y-103368595D01*
X184571428Y-103368595D02*
X185571428Y-103368595D01*
X181999999Y-98606690D02*
X181428571Y-98606690D01*
X181428571Y-98606690D02*
X181142856Y-99082880D01*
X181142856Y-99082880D02*
X180857142Y-100035261D01*
X180857142Y-100035261D02*
X180714285Y-101940023D01*
X180714285Y-101940023D02*
X180714285Y-105273357D01*
X180714285Y-105273357D02*
X180857142Y-107178119D01*
X180857142Y-107178119D02*
X181142856Y-108130500D01*
X181142856Y-108130500D02*
X181428571Y-108606690D01*
X181428571Y-108606690D02*
X181999999Y-108606690D01*
X181999999Y-108606690D02*
X182285714Y-108130500D01*
X182285714Y-108130500D02*
X182571428Y-107178119D01*
X182571428Y-107178119D02*
X182714285Y-105273357D01*
X182714285Y-105273357D02*
X182714285Y-101940023D01*
X182714285Y-101940023D02*
X182571428Y-100035261D01*
X182571428Y-100035261D02*
X182285714Y-99082880D01*
X182285714Y-99082880D02*
X181999999Y-98606690D01*
X179428571Y-108606690D02*
X179428571Y-98606690D01*
X179428571Y-98606690D02*
X177714285Y-108606690D01*
X177714285Y-108606690D02*
X177714285Y-98606690D01*
X176285714Y-103368595D02*
X175285714Y-103368595D01*
X174857142Y-108606690D02*
X176285714Y-108606690D01*
X176285714Y-108606690D02*
X176285714Y-98606690D01*
X176285714Y-98606690D02*
X174857142Y-98606690D01*
X171571428Y-98606690D02*
X169571428Y-108606690D01*
X169571428Y-98606690D02*
X171571428Y-108606690D01*
X166999999Y-108606690D02*
X168428571Y-108606690D01*
X168428571Y-108606690D02*
X168428571Y-98606690D01*
D10*
X198547620Y-113957419D02*
X198547620Y-112957419D01*
X198119049Y-113957419D02*
X198119049Y-113433609D01*
X198119049Y-113433609D02*
X198166668Y-113338371D01*
X198166668Y-113338371D02*
X198261906Y-113290752D01*
X198261906Y-113290752D02*
X198404763Y-113290752D01*
X198404763Y-113290752D02*
X198500001Y-113338371D01*
X198500001Y-113338371D02*
X198547620Y-113385990D01*
X197785715Y-113290752D02*
X197404763Y-113290752D01*
X197642858Y-112957419D02*
X197642858Y-113814561D01*
X197642858Y-113814561D02*
X197595239Y-113909800D01*
X197595239Y-113909800D02*
X197500001Y-113957419D01*
X197500001Y-113957419D02*
X197404763Y-113957419D01*
X197214286Y-113290752D02*
X196833334Y-113290752D01*
X197071429Y-112957419D02*
X197071429Y-113814561D01*
X197071429Y-113814561D02*
X197023810Y-113909800D01*
X197023810Y-113909800D02*
X196928572Y-113957419D01*
X196928572Y-113957419D02*
X196833334Y-113957419D01*
X196500000Y-113290752D02*
X196500000Y-114290752D01*
X196500000Y-113338371D02*
X196404762Y-113290752D01*
X196404762Y-113290752D02*
X196214286Y-113290752D01*
X196214286Y-113290752D02*
X196119048Y-113338371D01*
X196119048Y-113338371D02*
X196071429Y-113385990D01*
X196071429Y-113385990D02*
X196023810Y-113481228D01*
X196023810Y-113481228D02*
X196023810Y-113766942D01*
X196023810Y-113766942D02*
X196071429Y-113862180D01*
X196071429Y-113862180D02*
X196119048Y-113909800D01*
X196119048Y-113909800D02*
X196214286Y-113957419D01*
X196214286Y-113957419D02*
X196404762Y-113957419D01*
X196404762Y-113957419D02*
X196500000Y-113909800D01*
X195642857Y-113909800D02*
X195547619Y-113957419D01*
X195547619Y-113957419D02*
X195357143Y-113957419D01*
X195357143Y-113957419D02*
X195261905Y-113909800D01*
X195261905Y-113909800D02*
X195214286Y-113814561D01*
X195214286Y-113814561D02*
X195214286Y-113766942D01*
X195214286Y-113766942D02*
X195261905Y-113671704D01*
X195261905Y-113671704D02*
X195357143Y-113624085D01*
X195357143Y-113624085D02*
X195500000Y-113624085D01*
X195500000Y-113624085D02*
X195595238Y-113576466D01*
X195595238Y-113576466D02*
X195642857Y-113481228D01*
X195642857Y-113481228D02*
X195642857Y-113433609D01*
X195642857Y-113433609D02*
X195595238Y-113338371D01*
X195595238Y-113338371D02*
X195500000Y-113290752D01*
X195500000Y-113290752D02*
X195357143Y-113290752D01*
X195357143Y-113290752D02*
X195261905Y-113338371D01*
X194785714Y-113862180D02*
X194738095Y-113909800D01*
X194738095Y-113909800D02*
X194785714Y-113957419D01*
X194785714Y-113957419D02*
X194833333Y-113909800D01*
X194833333Y-113909800D02*
X194785714Y-113862180D01*
X194785714Y-113862180D02*
X194785714Y-113957419D01*
X194785714Y-113338371D02*
X194738095Y-113385990D01*
X194738095Y-113385990D02*
X194785714Y-113433609D01*
X194785714Y-113433609D02*
X194833333Y-113385990D01*
X194833333Y-113385990D02*
X194785714Y-113338371D01*
X194785714Y-113338371D02*
X194785714Y-113433609D01*
X193595239Y-112909800D02*
X194452381Y-114195514D01*
X192547620Y-112909800D02*
X193404762Y-114195514D01*
X191785715Y-113290752D02*
X191785715Y-114100276D01*
X191785715Y-114100276D02*
X191833334Y-114195514D01*
X191833334Y-114195514D02*
X191880953Y-114243133D01*
X191880953Y-114243133D02*
X191976191Y-114290752D01*
X191976191Y-114290752D02*
X192119048Y-114290752D01*
X192119048Y-114290752D02*
X192214286Y-114243133D01*
X191785715Y-113909800D02*
X191880953Y-113957419D01*
X191880953Y-113957419D02*
X192071429Y-113957419D01*
X192071429Y-113957419D02*
X192166667Y-113909800D01*
X192166667Y-113909800D02*
X192214286Y-113862180D01*
X192214286Y-113862180D02*
X192261905Y-113766942D01*
X192261905Y-113766942D02*
X192261905Y-113481228D01*
X192261905Y-113481228D02*
X192214286Y-113385990D01*
X192214286Y-113385990D02*
X192166667Y-113338371D01*
X192166667Y-113338371D02*
X192071429Y-113290752D01*
X192071429Y-113290752D02*
X191880953Y-113290752D01*
X191880953Y-113290752D02*
X191785715Y-113338371D01*
X191309524Y-113957419D02*
X191309524Y-113290752D01*
X191309524Y-112957419D02*
X191357143Y-113005038D01*
X191357143Y-113005038D02*
X191309524Y-113052657D01*
X191309524Y-113052657D02*
X191261905Y-113005038D01*
X191261905Y-113005038D02*
X191309524Y-112957419D01*
X191309524Y-112957419D02*
X191309524Y-113052657D01*
X190976191Y-113290752D02*
X190595239Y-113290752D01*
X190833334Y-112957419D02*
X190833334Y-113814561D01*
X190833334Y-113814561D02*
X190785715Y-113909800D01*
X190785715Y-113909800D02*
X190690477Y-113957419D01*
X190690477Y-113957419D02*
X190595239Y-113957419D01*
X190261905Y-113957419D02*
X190261905Y-112957419D01*
X189833334Y-113957419D02*
X189833334Y-113433609D01*
X189833334Y-113433609D02*
X189880953Y-113338371D01*
X189880953Y-113338371D02*
X189976191Y-113290752D01*
X189976191Y-113290752D02*
X190119048Y-113290752D01*
X190119048Y-113290752D02*
X190214286Y-113338371D01*
X190214286Y-113338371D02*
X190261905Y-113385990D01*
X188928572Y-113290752D02*
X188928572Y-113957419D01*
X189357143Y-113290752D02*
X189357143Y-113814561D01*
X189357143Y-113814561D02*
X189309524Y-113909800D01*
X189309524Y-113909800D02*
X189214286Y-113957419D01*
X189214286Y-113957419D02*
X189071429Y-113957419D01*
X189071429Y-113957419D02*
X188976191Y-113909800D01*
X188976191Y-113909800D02*
X188928572Y-113862180D01*
X188452381Y-113957419D02*
X188452381Y-112957419D01*
X188452381Y-113338371D02*
X188357143Y-113290752D01*
X188357143Y-113290752D02*
X188166667Y-113290752D01*
X188166667Y-113290752D02*
X188071429Y-113338371D01*
X188071429Y-113338371D02*
X188023810Y-113385990D01*
X188023810Y-113385990D02*
X187976191Y-113481228D01*
X187976191Y-113481228D02*
X187976191Y-113766942D01*
X187976191Y-113766942D02*
X188023810Y-113862180D01*
X188023810Y-113862180D02*
X188071429Y-113909800D01*
X188071429Y-113909800D02*
X188166667Y-113957419D01*
X188166667Y-113957419D02*
X188357143Y-113957419D01*
X188357143Y-113957419D02*
X188452381Y-113909800D01*
X187547619Y-113862180D02*
X187500000Y-113909800D01*
X187500000Y-113909800D02*
X187547619Y-113957419D01*
X187547619Y-113957419D02*
X187595238Y-113909800D01*
X187595238Y-113909800D02*
X187547619Y-113862180D01*
X187547619Y-113862180D02*
X187547619Y-113957419D01*
X186642858Y-113909800D02*
X186738096Y-113957419D01*
X186738096Y-113957419D02*
X186928572Y-113957419D01*
X186928572Y-113957419D02*
X187023810Y-113909800D01*
X187023810Y-113909800D02*
X187071429Y-113862180D01*
X187071429Y-113862180D02*
X187119048Y-113766942D01*
X187119048Y-113766942D02*
X187119048Y-113481228D01*
X187119048Y-113481228D02*
X187071429Y-113385990D01*
X187071429Y-113385990D02*
X187023810Y-113338371D01*
X187023810Y-113338371D02*
X186928572Y-113290752D01*
X186928572Y-113290752D02*
X186738096Y-113290752D01*
X186738096Y-113290752D02*
X186642858Y-113338371D01*
X186071429Y-113957419D02*
X186166667Y-113909800D01*
X186166667Y-113909800D02*
X186214286Y-113862180D01*
X186214286Y-113862180D02*
X186261905Y-113766942D01*
X186261905Y-113766942D02*
X186261905Y-113481228D01*
X186261905Y-113481228D02*
X186214286Y-113385990D01*
X186214286Y-113385990D02*
X186166667Y-113338371D01*
X186166667Y-113338371D02*
X186071429Y-113290752D01*
X186071429Y-113290752D02*
X185928572Y-113290752D01*
X185928572Y-113290752D02*
X185833334Y-113338371D01*
X185833334Y-113338371D02*
X185785715Y-113385990D01*
X185785715Y-113385990D02*
X185738096Y-113481228D01*
X185738096Y-113481228D02*
X185738096Y-113766942D01*
X185738096Y-113766942D02*
X185785715Y-113862180D01*
X185785715Y-113862180D02*
X185833334Y-113909800D01*
X185833334Y-113909800D02*
X185928572Y-113957419D01*
X185928572Y-113957419D02*
X186071429Y-113957419D01*
X185309524Y-113957419D02*
X185309524Y-113290752D01*
X185309524Y-113385990D02*
X185261905Y-113338371D01*
X185261905Y-113338371D02*
X185166667Y-113290752D01*
X185166667Y-113290752D02*
X185023810Y-113290752D01*
X185023810Y-113290752D02*
X184928572Y-113338371D01*
X184928572Y-113338371D02*
X184880953Y-113433609D01*
X184880953Y-113433609D02*
X184880953Y-113957419D01*
X184880953Y-113433609D02*
X184833334Y-113338371D01*
X184833334Y-113338371D02*
X184738096Y-113290752D01*
X184738096Y-113290752D02*
X184595239Y-113290752D01*
X184595239Y-113290752D02*
X184500000Y-113338371D01*
X184500000Y-113338371D02*
X184452381Y-113433609D01*
X184452381Y-113433609D02*
X184452381Y-113957419D01*
X183261906Y-112909800D02*
X184119048Y-114195514D01*
X182500001Y-113957419D02*
X182500001Y-112957419D01*
X182500001Y-113909800D02*
X182595239Y-113957419D01*
X182595239Y-113957419D02*
X182785715Y-113957419D01*
X182785715Y-113957419D02*
X182880953Y-113909800D01*
X182880953Y-113909800D02*
X182928572Y-113862180D01*
X182928572Y-113862180D02*
X182976191Y-113766942D01*
X182976191Y-113766942D02*
X182976191Y-113481228D01*
X182976191Y-113481228D02*
X182928572Y-113385990D01*
X182928572Y-113385990D02*
X182880953Y-113338371D01*
X182880953Y-113338371D02*
X182785715Y-113290752D01*
X182785715Y-113290752D02*
X182595239Y-113290752D01*
X182595239Y-113290752D02*
X182500001Y-113338371D01*
X181642858Y-113909800D02*
X181738096Y-113957419D01*
X181738096Y-113957419D02*
X181928572Y-113957419D01*
X181928572Y-113957419D02*
X182023810Y-113909800D01*
X182023810Y-113909800D02*
X182071429Y-113814561D01*
X182071429Y-113814561D02*
X182071429Y-113433609D01*
X182071429Y-113433609D02*
X182023810Y-113338371D01*
X182023810Y-113338371D02*
X181928572Y-113290752D01*
X181928572Y-113290752D02*
X181738096Y-113290752D01*
X181738096Y-113290752D02*
X181642858Y-113338371D01*
X181642858Y-113338371D02*
X181595239Y-113433609D01*
X181595239Y-113433609D02*
X181595239Y-113528847D01*
X181595239Y-113528847D02*
X182071429Y-113624085D01*
X181023810Y-113957419D02*
X181119048Y-113909800D01*
X181119048Y-113909800D02*
X181166667Y-113814561D01*
X181166667Y-113814561D02*
X181166667Y-112957419D01*
X180642857Y-113957419D02*
X180642857Y-112957419D01*
X180642857Y-113338371D02*
X180547619Y-113290752D01*
X180547619Y-113290752D02*
X180357143Y-113290752D01*
X180357143Y-113290752D02*
X180261905Y-113338371D01*
X180261905Y-113338371D02*
X180214286Y-113385990D01*
X180214286Y-113385990D02*
X180166667Y-113481228D01*
X180166667Y-113481228D02*
X180166667Y-113766942D01*
X180166667Y-113766942D02*
X180214286Y-113862180D01*
X180214286Y-113862180D02*
X180261905Y-113909800D01*
X180261905Y-113909800D02*
X180357143Y-113957419D01*
X180357143Y-113957419D02*
X180547619Y-113957419D01*
X180547619Y-113957419D02*
X180642857Y-113909800D01*
X179595238Y-113957419D02*
X179690476Y-113909800D01*
X179690476Y-113909800D02*
X179738095Y-113862180D01*
X179738095Y-113862180D02*
X179785714Y-113766942D01*
X179785714Y-113766942D02*
X179785714Y-113481228D01*
X179785714Y-113481228D02*
X179738095Y-113385990D01*
X179738095Y-113385990D02*
X179690476Y-113338371D01*
X179690476Y-113338371D02*
X179595238Y-113290752D01*
X179595238Y-113290752D02*
X179452381Y-113290752D01*
X179452381Y-113290752D02*
X179357143Y-113338371D01*
X179357143Y-113338371D02*
X179309524Y-113385990D01*
X179309524Y-113385990D02*
X179261905Y-113481228D01*
X179261905Y-113481228D02*
X179261905Y-113766942D01*
X179261905Y-113766942D02*
X179309524Y-113862180D01*
X179309524Y-113862180D02*
X179357143Y-113909800D01*
X179357143Y-113909800D02*
X179452381Y-113957419D01*
X179452381Y-113957419D02*
X179595238Y-113957419D01*
X178928571Y-113290752D02*
X178690476Y-113957419D01*
X178452381Y-113290752D02*
X178690476Y-113957419D01*
X178690476Y-113957419D02*
X178785714Y-114195514D01*
X178785714Y-114195514D02*
X178833333Y-114243133D01*
X178833333Y-114243133D02*
X178928571Y-114290752D01*
X177547619Y-113957419D02*
X178119047Y-113957419D01*
X177833333Y-113957419D02*
X177833333Y-112957419D01*
X177833333Y-112957419D02*
X177928571Y-113100276D01*
X177928571Y-113100276D02*
X178023809Y-113195514D01*
X178023809Y-113195514D02*
X178119047Y-113243133D01*
X177071428Y-113957419D02*
X176880952Y-113957419D01*
X176880952Y-113957419D02*
X176785714Y-113909800D01*
X176785714Y-113909800D02*
X176738095Y-113862180D01*
X176738095Y-113862180D02*
X176642857Y-113719323D01*
X176642857Y-113719323D02*
X176595238Y-113528847D01*
X176595238Y-113528847D02*
X176595238Y-113147895D01*
X176595238Y-113147895D02*
X176642857Y-113052657D01*
X176642857Y-113052657D02*
X176690476Y-113005038D01*
X176690476Y-113005038D02*
X176785714Y-112957419D01*
X176785714Y-112957419D02*
X176976190Y-112957419D01*
X176976190Y-112957419D02*
X177071428Y-113005038D01*
X177071428Y-113005038D02*
X177119047Y-113052657D01*
X177119047Y-113052657D02*
X177166666Y-113147895D01*
X177166666Y-113147895D02*
X177166666Y-113385990D01*
X177166666Y-113385990D02*
X177119047Y-113481228D01*
X177119047Y-113481228D02*
X177071428Y-113528847D01*
X177071428Y-113528847D02*
X176976190Y-113576466D01*
X176976190Y-113576466D02*
X176785714Y-113576466D01*
X176785714Y-113576466D02*
X176690476Y-113528847D01*
X176690476Y-113528847D02*
X176642857Y-113481228D01*
X176642857Y-113481228D02*
X176595238Y-113385990D01*
X176261904Y-112957419D02*
X175595238Y-112957419D01*
X175595238Y-112957419D02*
X176023809Y-113957419D01*
X175071428Y-113385990D02*
X175166666Y-113338371D01*
X175166666Y-113338371D02*
X175214285Y-113290752D01*
X175214285Y-113290752D02*
X175261904Y-113195514D01*
X175261904Y-113195514D02*
X175261904Y-113147895D01*
X175261904Y-113147895D02*
X175214285Y-113052657D01*
X175214285Y-113052657D02*
X175166666Y-113005038D01*
X175166666Y-113005038D02*
X175071428Y-112957419D01*
X175071428Y-112957419D02*
X174880952Y-112957419D01*
X174880952Y-112957419D02*
X174785714Y-113005038D01*
X174785714Y-113005038D02*
X174738095Y-113052657D01*
X174738095Y-113052657D02*
X174690476Y-113147895D01*
X174690476Y-113147895D02*
X174690476Y-113195514D01*
X174690476Y-113195514D02*
X174738095Y-113290752D01*
X174738095Y-113290752D02*
X174785714Y-113338371D01*
X174785714Y-113338371D02*
X174880952Y-113385990D01*
X174880952Y-113385990D02*
X175071428Y-113385990D01*
X175071428Y-113385990D02*
X175166666Y-113433609D01*
X175166666Y-113433609D02*
X175214285Y-113481228D01*
X175214285Y-113481228D02*
X175261904Y-113576466D01*
X175261904Y-113576466D02*
X175261904Y-113766942D01*
X175261904Y-113766942D02*
X175214285Y-113862180D01*
X175214285Y-113862180D02*
X175166666Y-113909800D01*
X175166666Y-113909800D02*
X175071428Y-113957419D01*
X175071428Y-113957419D02*
X174880952Y-113957419D01*
X174880952Y-113957419D02*
X174785714Y-113909800D01*
X174785714Y-113909800D02*
X174738095Y-113862180D01*
X174738095Y-113862180D02*
X174690476Y-113766942D01*
X174690476Y-113766942D02*
X174690476Y-113576466D01*
X174690476Y-113576466D02*
X174738095Y-113481228D01*
X174738095Y-113481228D02*
X174785714Y-113433609D01*
X174785714Y-113433609D02*
X174880952Y-113385990D01*
X173833333Y-113290752D02*
X173833333Y-113957419D01*
X174261904Y-113290752D02*
X174261904Y-113814561D01*
X174261904Y-113814561D02*
X174214285Y-113909800D01*
X174214285Y-113909800D02*
X174119047Y-113957419D01*
X174119047Y-113957419D02*
X173976190Y-113957419D01*
X173976190Y-113957419D02*
X173880952Y-113909800D01*
X173880952Y-113909800D02*
X173833333Y-113862180D01*
X173357142Y-113957419D02*
X173357142Y-112957419D01*
X173261904Y-113576466D02*
X172976190Y-113957419D01*
X172976190Y-113290752D02*
X173357142Y-113671704D01*
X171833333Y-112909800D02*
X172690475Y-114195514D01*
X171499999Y-113957419D02*
X171499999Y-112957419D01*
X171499999Y-113338371D02*
X171404761Y-113290752D01*
X171404761Y-113290752D02*
X171214285Y-113290752D01*
X171214285Y-113290752D02*
X171119047Y-113338371D01*
X171119047Y-113338371D02*
X171071428Y-113385990D01*
X171071428Y-113385990D02*
X171023809Y-113481228D01*
X171023809Y-113481228D02*
X171023809Y-113766942D01*
X171023809Y-113766942D02*
X171071428Y-113862180D01*
X171071428Y-113862180D02*
X171119047Y-113909800D01*
X171119047Y-113909800D02*
X171214285Y-113957419D01*
X171214285Y-113957419D02*
X171404761Y-113957419D01*
X171404761Y-113957419D02*
X171499999Y-113909800D01*
X170452380Y-113957419D02*
X170547618Y-113909800D01*
X170547618Y-113909800D02*
X170595237Y-113862180D01*
X170595237Y-113862180D02*
X170642856Y-113766942D01*
X170642856Y-113766942D02*
X170642856Y-113481228D01*
X170642856Y-113481228D02*
X170595237Y-113385990D01*
X170595237Y-113385990D02*
X170547618Y-113338371D01*
X170547618Y-113338371D02*
X170452380Y-113290752D01*
X170452380Y-113290752D02*
X170309523Y-113290752D01*
X170309523Y-113290752D02*
X170214285Y-113338371D01*
X170214285Y-113338371D02*
X170166666Y-113385990D01*
X170166666Y-113385990D02*
X170119047Y-113481228D01*
X170119047Y-113481228D02*
X170119047Y-113766942D01*
X170119047Y-113766942D02*
X170166666Y-113862180D01*
X170166666Y-113862180D02*
X170214285Y-113909800D01*
X170214285Y-113909800D02*
X170309523Y-113957419D01*
X170309523Y-113957419D02*
X170452380Y-113957419D01*
X169690475Y-113290752D02*
X169690475Y-113957419D01*
X169690475Y-113385990D02*
X169642856Y-113338371D01*
X169642856Y-113338371D02*
X169547618Y-113290752D01*
X169547618Y-113290752D02*
X169404761Y-113290752D01*
X169404761Y-113290752D02*
X169309523Y-113338371D01*
X169309523Y-113338371D02*
X169261904Y-113433609D01*
X169261904Y-113433609D02*
X169261904Y-113957419D01*
X168404761Y-113909800D02*
X168499999Y-113957419D01*
X168499999Y-113957419D02*
X168690475Y-113957419D01*
X168690475Y-113957419D02*
X168785713Y-113909800D01*
X168785713Y-113909800D02*
X168833332Y-113814561D01*
X168833332Y-113814561D02*
X168833332Y-113433609D01*
X168833332Y-113433609D02*
X168785713Y-113338371D01*
X168785713Y-113338371D02*
X168690475Y-113290752D01*
X168690475Y-113290752D02*
X168499999Y-113290752D01*
X168499999Y-113290752D02*
X168404761Y-113338371D01*
X168404761Y-113338371D02*
X168357142Y-113433609D01*
X168357142Y-113433609D02*
X168357142Y-113528847D01*
X168357142Y-113528847D02*
X168833332Y-113624085D01*
X167928570Y-113576466D02*
X167166666Y-113576466D01*
X166785713Y-113957419D02*
X166261904Y-113290752D01*
X166785713Y-113290752D02*
X166261904Y-113957419D01*
X165738094Y-113957419D02*
X165833332Y-113909800D01*
X165833332Y-113909800D02*
X165880951Y-113814561D01*
X165880951Y-113814561D02*
X165880951Y-112957419D01*
X165357141Y-113576466D02*
X164595237Y-113576466D01*
X163690475Y-113957419D02*
X163690475Y-112957419D01*
X163690475Y-113909800D02*
X163785713Y-113957419D01*
X163785713Y-113957419D02*
X163976189Y-113957419D01*
X163976189Y-113957419D02*
X164071427Y-113909800D01*
X164071427Y-113909800D02*
X164119046Y-113862180D01*
X164119046Y-113862180D02*
X164166665Y-113766942D01*
X164166665Y-113766942D02*
X164166665Y-113481228D01*
X164166665Y-113481228D02*
X164119046Y-113385990D01*
X164119046Y-113385990D02*
X164071427Y-113338371D01*
X164071427Y-113338371D02*
X163976189Y-113290752D01*
X163976189Y-113290752D02*
X163785713Y-113290752D01*
X163785713Y-113290752D02*
X163690475Y-113338371D01*
X163214284Y-113957419D02*
X163214284Y-113290752D01*
X163214284Y-112957419D02*
X163261903Y-113005038D01*
X163261903Y-113005038D02*
X163214284Y-113052657D01*
X163214284Y-113052657D02*
X163166665Y-113005038D01*
X163166665Y-113005038D02*
X163214284Y-112957419D01*
X163214284Y-112957419D02*
X163214284Y-113052657D01*
X162785713Y-113909800D02*
X162690475Y-113957419D01*
X162690475Y-113957419D02*
X162499999Y-113957419D01*
X162499999Y-113957419D02*
X162404761Y-113909800D01*
X162404761Y-113909800D02*
X162357142Y-113814561D01*
X162357142Y-113814561D02*
X162357142Y-113766942D01*
X162357142Y-113766942D02*
X162404761Y-113671704D01*
X162404761Y-113671704D02*
X162499999Y-113624085D01*
X162499999Y-113624085D02*
X162642856Y-113624085D01*
X162642856Y-113624085D02*
X162738094Y-113576466D01*
X162738094Y-113576466D02*
X162785713Y-113481228D01*
X162785713Y-113481228D02*
X162785713Y-113433609D01*
X162785713Y-113433609D02*
X162738094Y-113338371D01*
X162738094Y-113338371D02*
X162642856Y-113290752D01*
X162642856Y-113290752D02*
X162499999Y-113290752D01*
X162499999Y-113290752D02*
X162404761Y-113338371D01*
X162071427Y-113290752D02*
X161690475Y-113290752D01*
X161928570Y-112957419D02*
X161928570Y-113814561D01*
X161928570Y-113814561D02*
X161880951Y-113909800D01*
X161880951Y-113909800D02*
X161785713Y-113957419D01*
X161785713Y-113957419D02*
X161690475Y-113957419D01*
X161214284Y-113957419D02*
X161309522Y-113909800D01*
X161309522Y-113909800D02*
X161357141Y-113862180D01*
X161357141Y-113862180D02*
X161404760Y-113766942D01*
X161404760Y-113766942D02*
X161404760Y-113481228D01*
X161404760Y-113481228D02*
X161357141Y-113385990D01*
X161357141Y-113385990D02*
X161309522Y-113338371D01*
X161309522Y-113338371D02*
X161214284Y-113290752D01*
X161214284Y-113290752D02*
X161071427Y-113290752D01*
X161071427Y-113290752D02*
X160976189Y-113338371D01*
X160976189Y-113338371D02*
X160928570Y-113385990D01*
X160928570Y-113385990D02*
X160880951Y-113481228D01*
X160880951Y-113481228D02*
X160880951Y-113766942D01*
X160880951Y-113766942D02*
X160928570Y-113862180D01*
X160928570Y-113862180D02*
X160976189Y-113909800D01*
X160976189Y-113909800D02*
X161071427Y-113957419D01*
X161071427Y-113957419D02*
X161214284Y-113957419D01*
X160452379Y-113957419D02*
X160452379Y-113290752D01*
X160452379Y-113481228D02*
X160404760Y-113385990D01*
X160404760Y-113385990D02*
X160357141Y-113338371D01*
X160357141Y-113338371D02*
X160261903Y-113290752D01*
X160261903Y-113290752D02*
X160166665Y-113290752D01*
X159976188Y-113290752D02*
X159595236Y-113290752D01*
X159833331Y-112957419D02*
X159833331Y-113814561D01*
X159833331Y-113814561D02*
X159785712Y-113909800D01*
X159785712Y-113909800D02*
X159690474Y-113957419D01*
X159690474Y-113957419D02*
X159595236Y-113957419D01*
X159261902Y-113957419D02*
X159261902Y-113290752D01*
X159261902Y-112957419D02*
X159309521Y-113005038D01*
X159309521Y-113005038D02*
X159261902Y-113052657D01*
X159261902Y-113052657D02*
X159214283Y-113005038D01*
X159214283Y-113005038D02*
X159261902Y-112957419D01*
X159261902Y-112957419D02*
X159261902Y-113052657D01*
X158642855Y-113957419D02*
X158738093Y-113909800D01*
X158738093Y-113909800D02*
X158785712Y-113862180D01*
X158785712Y-113862180D02*
X158833331Y-113766942D01*
X158833331Y-113766942D02*
X158833331Y-113481228D01*
X158833331Y-113481228D02*
X158785712Y-113385990D01*
X158785712Y-113385990D02*
X158738093Y-113338371D01*
X158738093Y-113338371D02*
X158642855Y-113290752D01*
X158642855Y-113290752D02*
X158499998Y-113290752D01*
X158499998Y-113290752D02*
X158404760Y-113338371D01*
X158404760Y-113338371D02*
X158357141Y-113385990D01*
X158357141Y-113385990D02*
X158309522Y-113481228D01*
X158309522Y-113481228D02*
X158309522Y-113766942D01*
X158309522Y-113766942D02*
X158357141Y-113862180D01*
X158357141Y-113862180D02*
X158404760Y-113909800D01*
X158404760Y-113909800D02*
X158499998Y-113957419D01*
X158499998Y-113957419D02*
X158642855Y-113957419D01*
X157880950Y-113290752D02*
X157880950Y-113957419D01*
X157880950Y-113385990D02*
X157833331Y-113338371D01*
X157833331Y-113338371D02*
X157738093Y-113290752D01*
X157738093Y-113290752D02*
X157595236Y-113290752D01*
X157595236Y-113290752D02*
X157499998Y-113338371D01*
X157499998Y-113338371D02*
X157452379Y-113433609D01*
X157452379Y-113433609D02*
X157452379Y-113957419D01*
D13*
%TO.C,G\u002A\u002A\u002A*%
G36*
X176859198Y-88616666D02*
G01*
X176816723Y-88658999D01*
X176774248Y-88616666D01*
X176816723Y-88574333D01*
X176859198Y-88616666D01*
G37*
G36*
X170969343Y-84284555D02*
G01*
X170982633Y-84310021D01*
X170912710Y-84340999D01*
X170867737Y-84334889D01*
X170856076Y-84284555D01*
X170868527Y-84274422D01*
X170969343Y-84284555D01*
G37*
G36*
X174891939Y-90267666D02*
G01*
X174880097Y-90384135D01*
X174849091Y-90373499D01*
X174837871Y-90335175D01*
X174849091Y-90161833D01*
X174878589Y-90147470D01*
X174891939Y-90267666D01*
G37*
G36*
X177129976Y-88685829D02*
G01*
X177169296Y-88716304D01*
X177078652Y-88736982D01*
X176992490Y-88730995D01*
X176967155Y-88692513D01*
X176997209Y-88675735D01*
X177129976Y-88685829D01*
G37*
G36*
X174111724Y-89981551D02*
G01*
X174140803Y-90140666D01*
X174119712Y-90279876D01*
X174055853Y-90352333D01*
X173999983Y-90299781D01*
X173970904Y-90140666D01*
X173991995Y-90001455D01*
X174055853Y-89928999D01*
X174111724Y-89981551D01*
G37*
G36*
X174436250Y-90114487D02*
G01*
X174480603Y-90230329D01*
X174468378Y-90290805D01*
X174395653Y-90309999D01*
X174372453Y-90292670D01*
X174310703Y-90178002D01*
X174313134Y-90159100D01*
X174395653Y-90098333D01*
X174436250Y-90114487D01*
G37*
G36*
X175783285Y-90113359D02*
G01*
X175777974Y-90273345D01*
X175731082Y-90375898D01*
X175647245Y-90363619D01*
X175614201Y-90308637D01*
X175608927Y-90174789D01*
X175660618Y-90064595D01*
X175746275Y-90050717D01*
X175783285Y-90113359D01*
G37*
G36*
X175277689Y-90041317D02*
G01*
X175336472Y-90121616D01*
X175333942Y-90156504D01*
X175330101Y-90309999D01*
X175320517Y-90368423D01*
X175245151Y-90436999D01*
X175188424Y-90380736D01*
X175160201Y-90218277D01*
X175184462Y-90078258D01*
X175251522Y-90029894D01*
X175277689Y-90041317D01*
G37*
G36*
X170529156Y-85356317D02*
G01*
X170653352Y-85441558D01*
X170797920Y-85669851D01*
X170785285Y-85949666D01*
X170733786Y-86068908D01*
X170658092Y-86100565D01*
X170557126Y-85989822D01*
X170416052Y-85727762D01*
X170305041Y-85474641D01*
X170276723Y-85319147D01*
X170350348Y-85283250D01*
X170529156Y-85356317D01*
G37*
G36*
X180967265Y-85205316D02*
G01*
X181000612Y-85367823D01*
X180912143Y-85538802D01*
X180761219Y-85636292D01*
X180568389Y-85678036D01*
X180408701Y-85647528D01*
X180342141Y-85544200D01*
X180354843Y-85472413D01*
X180470654Y-85294203D01*
X180653339Y-85157779D01*
X180836359Y-85120222D01*
X180967265Y-85205316D01*
G37*
G36*
X180129148Y-85672924D02*
G01*
X180090661Y-85827290D01*
X179935210Y-86097833D01*
X179902217Y-86147158D01*
X179780562Y-86271540D01*
X179697376Y-86232262D01*
X179643352Y-86027067D01*
X179632485Y-85923970D01*
X179666769Y-85775425D01*
X179809140Y-85688401D01*
X179843794Y-85675588D01*
X180047812Y-85625451D01*
X180129148Y-85672924D01*
G37*
G36*
X190554810Y-78026839D02*
G01*
X190825993Y-78158740D01*
X190981215Y-78385078D01*
X191015321Y-78679687D01*
X190923153Y-79016399D01*
X190699553Y-79369050D01*
X190515258Y-79560959D01*
X190310117Y-79666819D01*
X190126824Y-79612664D01*
X189948401Y-79399172D01*
X189880791Y-79272281D01*
X189780373Y-78896333D01*
X189803892Y-78523209D01*
X189951215Y-78209552D01*
X190017283Y-78132545D01*
X190190049Y-78019568D01*
X190431237Y-78007634D01*
X190554810Y-78026839D01*
G37*
G36*
X160850643Y-90947356D02*
G01*
X161123525Y-91054145D01*
X161321781Y-91213936D01*
X161398328Y-91409894D01*
X161391408Y-91469293D01*
X161291488Y-91696249D01*
X161109940Y-91938020D01*
X160894627Y-92138217D01*
X160693410Y-92240447D01*
X160388185Y-92284343D01*
X160145139Y-92263758D01*
X159996567Y-92152737D01*
X159909092Y-91938428D01*
X159889208Y-91843039D01*
X159888570Y-91484156D01*
X160000883Y-91183677D01*
X160212107Y-90985747D01*
X160269319Y-90960118D01*
X160550214Y-90910402D01*
X160850643Y-90947356D01*
G37*
G36*
X189105588Y-92494799D02*
G01*
X189308756Y-92576637D01*
X189535669Y-92694971D01*
X189732574Y-92825518D01*
X189796685Y-92882219D01*
X189920777Y-93099022D01*
X189909306Y-93376540D01*
X189762995Y-93736392D01*
X189646452Y-93940950D01*
X189538188Y-94055853D01*
X189450889Y-94021934D01*
X189363799Y-93844833D01*
X189306997Y-93689422D01*
X189203455Y-93381151D01*
X189105455Y-93063701D01*
X189025294Y-92779442D01*
X188975271Y-92570747D01*
X188967683Y-92479987D01*
X188979916Y-92473738D01*
X189105588Y-92494799D01*
G37*
G36*
X159295943Y-78527083D02*
G01*
X159310621Y-78533393D01*
X159564655Y-78696253D01*
X159799502Y-78929922D01*
X159972036Y-79183413D01*
X160039131Y-79405740D01*
X160039115Y-79408073D01*
X159986624Y-79593863D01*
X159863066Y-79799914D01*
X159791843Y-79878755D01*
X159553763Y-80009061D01*
X159291018Y-79974555D01*
X159013198Y-79775512D01*
X158914259Y-79669684D01*
X158817629Y-79513894D01*
X158774659Y-79315292D01*
X158764884Y-79010855D01*
X158766395Y-78885059D01*
X158796157Y-78602222D01*
X158880227Y-78461133D01*
X159039768Y-78442513D01*
X159295943Y-78527083D01*
G37*
G36*
X160323020Y-76411250D02*
G01*
X160661712Y-76497820D01*
X160672086Y-76502233D01*
X160924345Y-76658450D01*
X161158570Y-76880162D01*
X161331114Y-77118403D01*
X161398328Y-77324205D01*
X161357321Y-77460019D01*
X161197800Y-77670812D01*
X160956826Y-77878370D01*
X160676255Y-78041134D01*
X160328709Y-78139251D01*
X159909784Y-78156033D01*
X159499023Y-78086989D01*
X159146780Y-77941040D01*
X158903411Y-77727104D01*
X158867433Y-77669907D01*
X158779509Y-77358980D01*
X158827118Y-77030705D01*
X158995977Y-76732246D01*
X159271802Y-76510766D01*
X159540808Y-76424855D01*
X159924216Y-76387163D01*
X160323020Y-76411250D01*
G37*
G36*
X191813964Y-79050470D02*
G01*
X191923050Y-79115674D01*
X192080483Y-79332958D01*
X192201162Y-79650016D01*
X192274620Y-80024297D01*
X192290389Y-80413248D01*
X192238003Y-80774318D01*
X192133435Y-81029223D01*
X191869774Y-81392920D01*
X191516492Y-81702535D01*
X191120151Y-81910732D01*
X191046351Y-81936028D01*
X190648011Y-82035975D01*
X190370118Y-82022327D01*
X190200760Y-81886633D01*
X190128026Y-81620442D01*
X190140004Y-81215301D01*
X190186928Y-80877023D01*
X190306827Y-80435574D01*
X190505632Y-80060675D01*
X190810113Y-79691452D01*
X190849101Y-79650491D01*
X191178082Y-79327788D01*
X191434250Y-79129349D01*
X191639059Y-79041476D01*
X191813964Y-79050470D01*
G37*
G36*
X181430137Y-84773803D02*
G01*
X181540334Y-84854583D01*
X181596452Y-84929356D01*
X181595952Y-84942176D01*
X181613312Y-85077362D01*
X181654019Y-85293499D01*
X181688185Y-85641595D01*
X181598488Y-86098319D01*
X181348549Y-86501809D01*
X181288611Y-86565611D01*
X180999678Y-86760307D01*
X180685816Y-86788804D01*
X180336675Y-86652646D01*
X180263997Y-86606828D01*
X180070720Y-86429477D01*
X180021567Y-86273023D01*
X180115815Y-86161513D01*
X180352739Y-86118999D01*
X180462956Y-86113402D01*
X180818247Y-86006605D01*
X181174217Y-85751422D01*
X181238350Y-85688982D01*
X181317276Y-85564922D01*
X181337492Y-85395233D01*
X181312165Y-85119616D01*
X181283781Y-84871428D01*
X181285659Y-84742425D01*
X181330881Y-84720329D01*
X181430137Y-84773803D01*
G37*
G36*
X171487859Y-76044629D02*
G01*
X171818526Y-76116869D01*
X172236445Y-76293342D01*
X172714680Y-76557870D01*
X173226300Y-76894270D01*
X173744370Y-77286362D01*
X174241959Y-77717967D01*
X174441368Y-77914388D01*
X174592641Y-78085025D01*
X174650502Y-78180977D01*
X174623197Y-78217023D01*
X174501840Y-78201510D01*
X174341249Y-78139818D01*
X173917945Y-78000908D01*
X173408230Y-77855058D01*
X172866390Y-77716535D01*
X172346708Y-77599609D01*
X171903472Y-77518548D01*
X171832316Y-77508124D01*
X171131423Y-77446799D01*
X170543283Y-77481286D01*
X170041974Y-77612897D01*
X169934836Y-77613178D01*
X169892759Y-77498494D01*
X169934373Y-77286975D01*
X170058943Y-77005051D01*
X170071167Y-76983279D01*
X170269320Y-76734745D01*
X170555669Y-76482869D01*
X170881337Y-76261305D01*
X171197444Y-76103708D01*
X171455112Y-76043733D01*
X171487859Y-76044629D01*
G37*
G36*
X175959814Y-79139500D02*
G01*
X176173266Y-79225971D01*
X176474901Y-79369022D01*
X176836168Y-79553354D01*
X177228518Y-79763666D01*
X177623405Y-79984659D01*
X177992277Y-80201033D01*
X178306587Y-80397488D01*
X178537786Y-80558726D01*
X178796383Y-80763070D01*
X179129648Y-81038046D01*
X179407693Y-81279233D01*
X179428743Y-81298270D01*
X179623967Y-81479946D01*
X179704982Y-81578091D01*
X179684243Y-81618807D01*
X179574203Y-81628193D01*
X179464920Y-81624789D01*
X179045265Y-81552090D01*
X178545240Y-81397840D01*
X178006269Y-81178302D01*
X177469773Y-80909743D01*
X176977176Y-80608428D01*
X176963619Y-80598895D01*
X176784485Y-80440664D01*
X176571437Y-80210153D01*
X176349199Y-79940269D01*
X176142493Y-79663921D01*
X175976045Y-79414017D01*
X175874577Y-79223465D01*
X175862813Y-79125174D01*
X175863092Y-79124908D01*
X175959814Y-79139500D01*
G37*
G36*
X191287553Y-91258719D02*
G01*
X191393041Y-91374177D01*
X191553520Y-91583652D01*
X191793307Y-91907231D01*
X192073570Y-92284748D01*
X191899495Y-92608453D01*
X191858280Y-92688257D01*
X191763341Y-92903662D01*
X191725419Y-93043124D01*
X191710531Y-93111705D01*
X191633577Y-93306301D01*
X191513044Y-93551704D01*
X191364370Y-93916005D01*
X191300670Y-94315392D01*
X191298776Y-94394418D01*
X191268405Y-94658305D01*
X191212731Y-94845232D01*
X191179192Y-94894654D01*
X191022856Y-94993520D01*
X190851195Y-94989747D01*
X190735352Y-94878393D01*
X190718618Y-94848576D01*
X190581838Y-94719296D01*
X190371299Y-94588247D01*
X190244884Y-94522182D01*
X190018895Y-94373587D01*
X189925771Y-94219630D01*
X189949684Y-94013300D01*
X190074808Y-93707585D01*
X190143240Y-93549510D01*
X190241208Y-93227201D01*
X190240074Y-92982794D01*
X190226385Y-92828831D01*
X190284543Y-92632060D01*
X190445868Y-92378193D01*
X190532266Y-92246891D01*
X190657521Y-91995856D01*
X190707321Y-91800129D01*
X190722586Y-91625489D01*
X190818739Y-91437640D01*
X191040128Y-91285070D01*
X191057864Y-91275583D01*
X191144281Y-91229509D01*
X191212738Y-91217192D01*
X191287553Y-91258719D01*
G37*
G36*
X175244934Y-74825503D02*
G01*
X175934406Y-74858261D01*
X176548434Y-74955517D01*
X177155679Y-75131899D01*
X177824803Y-75402036D01*
X178099718Y-75538161D01*
X178768793Y-75983624D01*
X179393924Y-76555282D01*
X179951521Y-77222580D01*
X180417993Y-77954962D01*
X180769748Y-78721874D01*
X180983195Y-79492760D01*
X180986965Y-79514170D01*
X181039163Y-79893239D01*
X181077047Y-80322089D01*
X181099153Y-80757173D01*
X181104018Y-81154944D01*
X181090179Y-81471854D01*
X181056173Y-81664356D01*
X181004019Y-81733012D01*
X180867452Y-81764477D01*
X180610186Y-81744795D01*
X180494147Y-81727901D01*
X180340520Y-81691470D01*
X180188466Y-81626836D01*
X180012182Y-81517244D01*
X179785863Y-81345939D01*
X179483706Y-81096167D01*
X179079904Y-80751172D01*
X178735717Y-80481981D01*
X178248944Y-80146997D01*
X177688754Y-79794826D01*
X177098307Y-79451470D01*
X176520763Y-79142931D01*
X175999282Y-78895212D01*
X175917908Y-78858732D01*
X175638770Y-78702352D01*
X175421024Y-78502806D01*
X175199920Y-78204112D01*
X174840582Y-77711273D01*
X174403815Y-77216524D01*
X173877538Y-76717236D01*
X173229389Y-76180169D01*
X173159765Y-76125319D01*
X172832878Y-75865583D01*
X172617468Y-75683884D01*
X172494936Y-75557272D01*
X172446682Y-75462797D01*
X172454108Y-75377512D01*
X172498616Y-75278466D01*
X172541267Y-75202179D01*
X172626513Y-75111005D01*
X172765261Y-75046575D01*
X172995945Y-74993586D01*
X173357003Y-74936738D01*
X173620607Y-74904825D01*
X174098892Y-74864826D01*
X174622544Y-74836756D01*
X175117726Y-74825288D01*
X175244934Y-74825503D01*
G37*
G36*
X181670682Y-82352074D02*
G01*
X181818622Y-82489595D01*
X181936557Y-82604370D01*
X182129166Y-82622331D01*
X182235398Y-82603335D01*
X182262652Y-82624445D01*
X182250484Y-82667315D01*
X182307126Y-82788042D01*
X182344094Y-82853246D01*
X182320903Y-82997698D01*
X182178387Y-83110284D01*
X181950800Y-83155666D01*
X181779678Y-83176494D01*
X181642449Y-83280043D01*
X181651330Y-83462963D01*
X181701135Y-83533824D01*
X181798458Y-83521851D01*
X181987446Y-83416575D01*
X182035397Y-83388156D01*
X182252959Y-83282914D01*
X182412201Y-83240333D01*
X182488757Y-83266492D01*
X182546940Y-83398954D01*
X182522811Y-83599337D01*
X182416039Y-83817797D01*
X182393589Y-83850741D01*
X182328743Y-84006370D01*
X182383966Y-84132970D01*
X182431601Y-84212369D01*
X182403052Y-84362166D01*
X182335827Y-84485147D01*
X182265168Y-84694636D01*
X182190308Y-84854108D01*
X182062317Y-84950744D01*
X181857760Y-84978339D01*
X181700684Y-84969556D01*
X181666887Y-84920727D01*
X181666570Y-84876294D01*
X181573014Y-84785839D01*
X181548879Y-84767638D01*
X181453135Y-84611708D01*
X181387107Y-84380563D01*
X181378158Y-84334227D01*
X181286336Y-84080536D01*
X181156182Y-83898582D01*
X181060089Y-83811150D01*
X181032522Y-83733761D01*
X181127927Y-83659446D01*
X181244558Y-83558013D01*
X181265554Y-83454444D01*
X181158935Y-83409666D01*
X181083251Y-83376147D01*
X180945128Y-83248042D01*
X180820858Y-83084812D01*
X180766890Y-82952310D01*
X180771829Y-82933192D01*
X180864148Y-82815381D01*
X181036375Y-82654252D01*
X181240047Y-82489684D01*
X181426696Y-82361552D01*
X181547859Y-82309734D01*
X181670682Y-82352074D01*
G37*
G36*
X182357425Y-90182999D02*
G01*
X182361921Y-90308955D01*
X182350713Y-91097426D01*
X182259368Y-91786278D01*
X182078573Y-92423450D01*
X181799014Y-93056876D01*
X181544591Y-93624575D01*
X181345112Y-94287279D01*
X181276589Y-94886167D01*
X181275804Y-94931263D01*
X181237151Y-95125833D01*
X181148680Y-95166260D01*
X181022011Y-95055139D01*
X180868768Y-94795068D01*
X180867407Y-94792271D01*
X180717129Y-94350980D01*
X180696717Y-93885965D01*
X180804154Y-93352200D01*
X180842595Y-93217734D01*
X181060854Y-92260504D01*
X181165962Y-91368594D01*
X181156668Y-90561189D01*
X181031723Y-89857476D01*
X180989037Y-89704147D01*
X180825789Y-89050748D01*
X180703830Y-88446054D01*
X181348240Y-88446054D01*
X181385003Y-88694640D01*
X181466682Y-88932718D01*
X181530715Y-89094689D01*
X181623285Y-89420485D01*
X181688728Y-89761601D01*
X181716580Y-89936607D01*
X181785329Y-90218268D01*
X181861053Y-90375573D01*
X181934698Y-90393930D01*
X181997209Y-90258746D01*
X182011110Y-90127078D01*
X181994204Y-89845881D01*
X181941430Y-89495467D01*
X181862330Y-89115371D01*
X181766444Y-88745126D01*
X181663315Y-88424266D01*
X181562484Y-88192326D01*
X181473493Y-88088839D01*
X181407960Y-88104187D01*
X181356018Y-88233667D01*
X181348240Y-88446054D01*
X180703830Y-88446054D01*
X180703739Y-88445604D01*
X180627103Y-87916434D01*
X180600100Y-87490960D01*
X180626947Y-87196901D01*
X180677856Y-87083971D01*
X180817863Y-86982310D01*
X181083076Y-86902708D01*
X181238193Y-86873279D01*
X181513700Y-86869959D01*
X181656769Y-86956991D01*
X181659997Y-87131440D01*
X181657072Y-87141412D01*
X181649221Y-87221516D01*
X181666677Y-87342207D01*
X181716490Y-87527010D01*
X181805713Y-87799449D01*
X181941397Y-88183048D01*
X182130594Y-88701333D01*
X182175065Y-88831629D01*
X182263821Y-89191433D01*
X182322222Y-89626305D01*
X182353889Y-90127078D01*
X182357425Y-90182999D01*
G37*
G36*
X162056418Y-78094651D02*
G01*
X162290212Y-78420514D01*
X162611275Y-78766404D01*
X163001423Y-79078413D01*
X163492593Y-79381431D01*
X164116723Y-79700349D01*
X164688694Y-79974879D01*
X165481465Y-80359123D01*
X166242660Y-80732214D01*
X166954861Y-81085382D01*
X167600647Y-81409855D01*
X168162597Y-81696862D01*
X168623293Y-81937631D01*
X168965313Y-82123391D01*
X169171238Y-82245371D01*
X169375739Y-82386235D01*
X169517597Y-82516843D01*
X169571657Y-82645828D01*
X169570104Y-82819519D01*
X169558348Y-83015078D01*
X169548036Y-83338236D01*
X169543970Y-83684833D01*
X169543964Y-83690864D01*
X169535585Y-83975882D01*
X169514396Y-84178743D01*
X169484904Y-84255880D01*
X169477016Y-84254046D01*
X169358502Y-84198449D01*
X169128216Y-84076955D01*
X168815367Y-83905267D01*
X168449164Y-83699086D01*
X168116923Y-83511417D01*
X167417965Y-83129342D01*
X166753678Y-82787587D01*
X166091139Y-82471399D01*
X165397424Y-82166019D01*
X164639612Y-81856694D01*
X163784778Y-81528666D01*
X162800001Y-81167181D01*
X162715856Y-81136890D01*
X162242556Y-80973337D01*
X161859919Y-80859827D01*
X161510504Y-80783428D01*
X161136871Y-80731206D01*
X160681579Y-80690230D01*
X160284622Y-80656264D01*
X159951818Y-80621342D01*
X159718793Y-80589630D01*
X159620414Y-80565233D01*
X159619024Y-80524184D01*
X159714673Y-80439458D01*
X159735522Y-80427201D01*
X159959873Y-80201588D01*
X160117949Y-79875183D01*
X160197328Y-79503594D01*
X160185590Y-79142428D01*
X160070314Y-78847291D01*
X160019715Y-78771061D01*
X159979961Y-78652926D01*
X160049076Y-78574602D01*
X160119407Y-78540744D01*
X160277252Y-78522489D01*
X160491188Y-78564082D01*
X160778213Y-78672421D01*
X161155329Y-78854406D01*
X161639533Y-79116935D01*
X162247827Y-79466906D01*
X162627119Y-79681742D01*
X163086574Y-79921645D01*
X163491977Y-80110978D01*
X163820715Y-80240121D01*
X164050173Y-80299454D01*
X164157736Y-80279357D01*
X164123037Y-80228784D01*
X163964160Y-80117048D01*
X163704986Y-79966315D01*
X163374558Y-79794562D01*
X163163671Y-79688171D01*
X162672345Y-79429828D01*
X162159112Y-79149005D01*
X161705874Y-78890094D01*
X160866597Y-78395870D01*
X161092495Y-78214601D01*
X161306388Y-78017633D01*
X161510539Y-77791418D01*
X161702685Y-77549503D01*
X162056418Y-78094651D01*
G37*
G36*
X189871740Y-77856244D02*
G01*
X189782021Y-77942230D01*
X189754730Y-77974548D01*
X189682591Y-78135850D01*
X189609907Y-78374483D01*
X189565627Y-78809873D01*
X189651352Y-79273236D01*
X189864710Y-79671604D01*
X189940054Y-79772252D01*
X190013927Y-79927192D01*
X189948980Y-80002956D01*
X189736666Y-80022999D01*
X189548293Y-80041572D01*
X189238006Y-80104114D01*
X188908405Y-80195508D01*
X188841074Y-80216506D01*
X188469155Y-80321153D01*
X188030163Y-80431713D01*
X187605352Y-80527487D01*
X187369288Y-80577506D01*
X186766839Y-80715220D01*
X186324851Y-80834650D01*
X186037222Y-80937857D01*
X185897852Y-81026905D01*
X185900639Y-81103857D01*
X185909201Y-81106667D01*
X186039548Y-81094136D01*
X186303671Y-81046187D01*
X186676674Y-80968193D01*
X187133661Y-80865527D01*
X187649735Y-80743560D01*
X188200001Y-80607666D01*
X188332953Y-80574375D01*
X188715002Y-80480432D01*
X189131973Y-80379647D01*
X189517294Y-80288039D01*
X189804395Y-80221627D01*
X190049593Y-80166547D01*
X189984597Y-80581606D01*
X189965319Y-80708928D01*
X189912530Y-81086977D01*
X189866824Y-81449260D01*
X189814047Y-81901854D01*
X189588274Y-81724427D01*
X189582426Y-81719857D01*
X189464602Y-81643286D01*
X189322580Y-81593093D01*
X189119951Y-81563900D01*
X188820307Y-81550328D01*
X188387242Y-81546999D01*
X188052491Y-81550649D01*
X187734435Y-81566153D01*
X187427715Y-81599472D01*
X187107988Y-81656559D01*
X186750909Y-81743369D01*
X186332136Y-81865854D01*
X185827323Y-82029967D01*
X185212129Y-82241663D01*
X184462208Y-82506894D01*
X184447586Y-82512100D01*
X183961627Y-82682834D01*
X183524390Y-82832269D01*
X183163608Y-82951253D01*
X182907016Y-83030633D01*
X182782346Y-83061258D01*
X182670374Y-83024587D01*
X182557095Y-82875737D01*
X182450268Y-82712263D01*
X182222529Y-82486603D01*
X181922073Y-82253083D01*
X181591033Y-82047812D01*
X181342087Y-81913625D01*
X182364421Y-81476312D01*
X182438286Y-81444774D01*
X182814472Y-81286049D01*
X183127230Y-81157155D01*
X183345754Y-81070627D01*
X183439237Y-81038999D01*
X183464611Y-81034368D01*
X183627785Y-80980634D01*
X183906991Y-80876095D01*
X184273188Y-80732618D01*
X184697334Y-80562069D01*
X185150390Y-80376313D01*
X185603316Y-80187217D01*
X186027070Y-80006646D01*
X186392613Y-79846466D01*
X186670904Y-79718543D01*
X187112726Y-79481959D01*
X187590491Y-79177853D01*
X187987626Y-78874936D01*
X188307177Y-78606734D01*
X188760153Y-78264855D01*
X189156398Y-78022844D01*
X189526429Y-77860586D01*
X189676449Y-77819196D01*
X189826046Y-77811878D01*
X189871740Y-77856244D01*
G37*
G36*
X182444649Y-87945550D02*
G01*
X183546770Y-88610091D01*
X184673807Y-89169518D01*
X185837944Y-89622347D01*
X187068975Y-89978621D01*
X188396695Y-90248381D01*
X189850900Y-90441669D01*
X190018162Y-90460768D01*
X190448641Y-90526602D01*
X190803075Y-90604776D01*
X191034609Y-90685635D01*
X191331968Y-90837680D01*
X191131486Y-90944617D01*
X191016787Y-90992029D01*
X190669450Y-91064217D01*
X190207841Y-91097388D01*
X189666968Y-91089911D01*
X189081835Y-91040154D01*
X188975434Y-91026804D01*
X187943047Y-90826995D01*
X186999663Y-90504757D01*
X186107617Y-90047521D01*
X185870159Y-89910844D01*
X185608048Y-89787712D01*
X185471941Y-89771530D01*
X185459028Y-89861491D01*
X185479231Y-89894945D01*
X185624451Y-90024533D01*
X185874817Y-90197159D01*
X186194962Y-90391954D01*
X186549518Y-90588052D01*
X186903117Y-90764587D01*
X187220393Y-90900691D01*
X187257150Y-90914474D01*
X187994542Y-91140818D01*
X188838255Y-91318290D01*
X189731781Y-91434869D01*
X190408696Y-91496666D01*
X190384461Y-91790818D01*
X190321387Y-92033301D01*
X190144951Y-92308920D01*
X189929676Y-92532869D01*
X189344122Y-92335423D01*
X188981129Y-92206897D01*
X188558926Y-92029712D01*
X188213193Y-91839877D01*
X187890452Y-91610732D01*
X187796503Y-91540346D01*
X187605594Y-91417111D01*
X187486940Y-91368333D01*
X187473628Y-91368587D01*
X187395029Y-91408071D01*
X187452131Y-91518029D01*
X187648807Y-91703088D01*
X187988931Y-91967871D01*
X188174274Y-92107252D01*
X188403831Y-92297851D01*
X188547555Y-92461769D01*
X188640010Y-92642559D01*
X188715755Y-92883774D01*
X188789949Y-93150468D01*
X188913159Y-93566874D01*
X189021525Y-93866059D01*
X189133245Y-94079032D01*
X189266515Y-94236803D01*
X189439532Y-94370383D01*
X189670493Y-94510780D01*
X189699541Y-94527641D01*
X189962827Y-94683123D01*
X190160451Y-94804411D01*
X190251549Y-94866487D01*
X190240772Y-94904656D01*
X190129977Y-95019095D01*
X189936628Y-95172097D01*
X189704850Y-95310765D01*
X189393000Y-95417306D01*
X189123098Y-95423807D01*
X188937485Y-95323839D01*
X188912198Y-95281381D01*
X188833782Y-95092572D01*
X188733658Y-94804151D01*
X188627310Y-94459281D01*
X188588834Y-94331837D01*
X188456493Y-93943311D01*
X188317141Y-93592372D01*
X188195245Y-93342274D01*
X188080919Y-93174168D01*
X187742016Y-92799419D01*
X187258137Y-92370218D01*
X186637512Y-91892724D01*
X185888371Y-91373092D01*
X185018943Y-90817478D01*
X184037459Y-90232040D01*
X183700938Y-90035986D01*
X183311289Y-89804962D01*
X182989694Y-89609730D01*
X182762615Y-89466407D01*
X182656516Y-89391107D01*
X182655335Y-89389925D01*
X182584239Y-89259952D01*
X182491270Y-89016849D01*
X182391946Y-88711493D01*
X182301787Y-88394760D01*
X182236311Y-88117526D01*
X182211037Y-87930667D01*
X182221743Y-87853637D01*
X182285594Y-87850916D01*
X182444649Y-87945550D01*
G37*
G36*
X180840612Y-90364321D02*
G01*
X180873566Y-90673731D01*
X180888338Y-90994984D01*
X180890975Y-91368333D01*
X180884612Y-91820113D01*
X180862662Y-92164210D01*
X180815482Y-92459692D01*
X180733420Y-92766938D01*
X180606828Y-93146333D01*
X180531389Y-93356588D01*
X180396487Y-93707551D01*
X180276133Y-93991820D01*
X180189652Y-94162333D01*
X180107500Y-94293709D01*
X179939941Y-94585047D01*
X179801892Y-94854165D01*
X179713402Y-95060524D01*
X179694518Y-95163584D01*
X179702991Y-95190250D01*
X179714960Y-95364909D01*
X179711740Y-95658711D01*
X179695968Y-96035609D01*
X179670280Y-96459558D01*
X179637312Y-96894509D01*
X179599700Y-97304416D01*
X179560081Y-97653232D01*
X179521090Y-97904911D01*
X179485365Y-98023405D01*
X179480848Y-98028733D01*
X179420659Y-98068496D01*
X179366898Y-98014973D01*
X179306830Y-97843810D01*
X179227724Y-97530655D01*
X179122820Y-97143546D01*
X178976452Y-96682521D01*
X178825532Y-96267997D01*
X178666828Y-95849347D01*
X178555653Y-95481705D01*
X178510750Y-95184096D01*
X178526132Y-94913776D01*
X178595810Y-94627999D01*
X178700869Y-94191750D01*
X178713025Y-93821120D01*
X178613920Y-93576333D01*
X178571136Y-93509025D01*
X178474793Y-93273729D01*
X178372778Y-92941384D01*
X178277379Y-92558801D01*
X178200882Y-92172789D01*
X178155575Y-91830160D01*
X178148113Y-91584446D01*
X178198869Y-91303734D01*
X178221768Y-91252790D01*
X178986870Y-91252790D01*
X179005581Y-91563971D01*
X179044215Y-91919297D01*
X179099512Y-92284727D01*
X179168217Y-92626215D01*
X179247071Y-92909719D01*
X179251586Y-92922970D01*
X179375892Y-93276491D01*
X179467699Y-93483014D01*
X179540746Y-93538849D01*
X179608772Y-93440307D01*
X179685516Y-93183698D01*
X179784716Y-92765333D01*
X179901232Y-92185243D01*
X180000959Y-91503857D01*
X180062578Y-90839116D01*
X180083853Y-90227535D01*
X180062547Y-89705631D01*
X179996422Y-89309920D01*
X179954714Y-89176237D01*
X179873832Y-89017930D01*
X179804211Y-89020427D01*
X179748623Y-89178052D01*
X179709840Y-89485130D01*
X179690634Y-89935988D01*
X179675849Y-90331004D01*
X179640921Y-90772985D01*
X179591461Y-91171488D01*
X179532320Y-91495067D01*
X179468347Y-91712275D01*
X179404395Y-91791666D01*
X179396711Y-91790276D01*
X179324314Y-91700579D01*
X179244295Y-91515245D01*
X179179517Y-91296531D01*
X179152843Y-91106695D01*
X179139546Y-91022666D01*
X179054217Y-90894241D01*
X179022242Y-90899045D01*
X178991338Y-91019801D01*
X178986870Y-91252790D01*
X178221768Y-91252790D01*
X178338966Y-90992050D01*
X178421112Y-90826590D01*
X178519723Y-90584913D01*
X178558195Y-90424389D01*
X178572364Y-90337991D01*
X178643144Y-90267666D01*
X178668235Y-90263503D01*
X178728094Y-90174730D01*
X178735500Y-90139846D01*
X178798755Y-89970805D01*
X178912694Y-89708041D01*
X179060345Y-89391563D01*
X179097798Y-89313245D01*
X179252181Y-88965323D01*
X179343001Y-88685789D01*
X179387400Y-88408254D01*
X179402519Y-88066333D01*
X179403022Y-88037025D01*
X179414721Y-87705114D01*
X179434454Y-87427620D01*
X179458238Y-87261999D01*
X179502678Y-87109978D01*
X179620568Y-86808609D01*
X179732762Y-86646197D01*
X179827483Y-86628239D01*
X179892952Y-86760233D01*
X179917392Y-87047675D01*
X179924997Y-87265900D01*
X179959913Y-87406879D01*
X180030075Y-87425255D01*
X180037301Y-87423545D01*
X180093485Y-87469011D01*
X180165012Y-87624186D01*
X180256571Y-87903114D01*
X180372849Y-88319842D01*
X180518537Y-88888412D01*
X180572215Y-89104630D01*
X180695982Y-89620023D01*
X180783433Y-90026503D01*
X180817460Y-90227535D01*
X180840612Y-90364321D01*
G37*
G36*
X173648979Y-89769200D02*
G01*
X173733879Y-89835771D01*
X173801004Y-89974311D01*
X173786247Y-90045293D01*
X173697130Y-90095265D01*
X173588629Y-90013666D01*
X173587628Y-90012080D01*
X173481400Y-89941490D01*
X173353428Y-89937682D01*
X173291305Y-90003617D01*
X173307279Y-90039079D01*
X173421621Y-90163074D01*
X173609867Y-90321117D01*
X173662154Y-90360261D01*
X173808897Y-90454823D01*
X173966974Y-90518890D01*
X174175998Y-90561582D01*
X174475586Y-90592016D01*
X174905352Y-90619312D01*
X175265866Y-90634387D01*
X175604866Y-90637086D01*
X175848474Y-90625895D01*
X175959672Y-90601440D01*
X176016614Y-90496666D01*
X176039875Y-90394666D01*
X176166857Y-90394666D01*
X176170411Y-90418030D01*
X176258178Y-90505438D01*
X176306395Y-90500039D01*
X176349499Y-90394666D01*
X176335638Y-90324764D01*
X176258178Y-90283894D01*
X176232992Y-90295391D01*
X176166857Y-90394666D01*
X176039875Y-90394666D01*
X176061507Y-90299805D01*
X176064112Y-90278219D01*
X176139547Y-90064881D01*
X176273649Y-89986594D01*
X176439402Y-90060467D01*
X176457504Y-90075974D01*
X176590110Y-90135704D01*
X176649761Y-90085383D01*
X176591506Y-89955910D01*
X176550502Y-89884953D01*
X176561398Y-89778786D01*
X176593899Y-89762669D01*
X176665533Y-89823166D01*
X176668280Y-89830325D01*
X176765577Y-89919360D01*
X176885515Y-89907792D01*
X176944148Y-89801999D01*
X176931909Y-89743195D01*
X176837157Y-89674999D01*
X176741685Y-89632308D01*
X176616371Y-89493390D01*
X176563745Y-89405331D01*
X176554609Y-89345000D01*
X176659649Y-89377836D01*
X176879533Y-89443519D01*
X177083868Y-89430317D01*
X177181338Y-89315166D01*
X177178757Y-89229349D01*
X177077801Y-89166999D01*
X177013373Y-89156443D01*
X176944148Y-89082333D01*
X176949840Y-89054172D01*
X177043646Y-88997666D01*
X177068854Y-88995492D01*
X177237306Y-88908706D01*
X177388354Y-88745965D01*
X177453847Y-88577133D01*
X177455355Y-88560525D01*
X177535747Y-88412664D01*
X177700849Y-88254836D01*
X177704103Y-88252425D01*
X177912213Y-88055131D01*
X178068120Y-87836747D01*
X178331981Y-87327768D01*
X178555320Y-86921333D01*
X178740614Y-86617925D01*
X178903980Y-86391230D01*
X179061535Y-86214938D01*
X179365218Y-85911557D01*
X179391245Y-86364010D01*
X179394813Y-86524697D01*
X179375133Y-86836415D01*
X179327533Y-87073032D01*
X179324695Y-87081463D01*
X179280532Y-87301380D01*
X179248702Y-87620619D01*
X179235928Y-87973133D01*
X179230148Y-88210462D01*
X179178586Y-88640408D01*
X179066330Y-88985072D01*
X179016275Y-89105806D01*
X178953763Y-89318770D01*
X178953897Y-89442654D01*
X178969296Y-89476944D01*
X178921087Y-89477557D01*
X178868280Y-89495738D01*
X178769860Y-89631729D01*
X178654952Y-89856628D01*
X178540857Y-90128328D01*
X178448367Y-90394666D01*
X178444877Y-90404717D01*
X178384313Y-90643686D01*
X178376465Y-90803126D01*
X178375594Y-90826490D01*
X178305450Y-90819296D01*
X178271358Y-90804622D01*
X178218395Y-90844422D01*
X178210725Y-90867622D01*
X178109423Y-90980223D01*
X177928052Y-91121455D01*
X177802196Y-91225235D01*
X177576173Y-91470356D01*
X177377284Y-91748004D01*
X177330485Y-91821330D01*
X177120748Y-92103701D01*
X176864349Y-92401779D01*
X176597730Y-92677253D01*
X176357333Y-92891810D01*
X176179599Y-93007139D01*
X176114350Y-93020694D01*
X175899869Y-93026092D01*
X175627425Y-93005029D01*
X175331648Y-92980899D01*
X174942739Y-92966619D01*
X174553633Y-92966164D01*
X174326389Y-92969651D01*
X174067756Y-92959705D01*
X173882053Y-92915472D01*
X173709860Y-92819505D01*
X173491760Y-92654356D01*
X173473891Y-92640162D01*
X172996303Y-92173303D01*
X172531433Y-91546777D01*
X172077206Y-90757402D01*
X171631550Y-89801999D01*
X171576293Y-89674999D01*
X173248830Y-89674999D01*
X173266266Y-89700337D01*
X173338793Y-89759666D01*
X173347271Y-89757465D01*
X173376255Y-89674999D01*
X173372798Y-89651793D01*
X173286291Y-89590333D01*
X173255565Y-89596980D01*
X173248830Y-89674999D01*
X171576293Y-89674999D01*
X171559964Y-89637470D01*
X171388122Y-89266726D01*
X171224276Y-88941729D01*
X171095970Y-88718218D01*
X171033457Y-88616572D01*
X170954028Y-88441413D01*
X170902203Y-88228080D01*
X170868887Y-87932852D01*
X170844981Y-87512011D01*
X170838855Y-87302478D01*
X170846002Y-86865678D01*
X170877276Y-86472475D01*
X170928333Y-86154270D01*
X170994827Y-85942463D01*
X171072412Y-85868454D01*
X171120618Y-85903558D01*
X171238123Y-86057125D01*
X171390451Y-86296177D01*
X171554728Y-86580569D01*
X171708082Y-86870156D01*
X171827640Y-87124792D01*
X171890526Y-87304333D01*
X171965476Y-87581357D01*
X172095111Y-87856189D01*
X172300983Y-88135252D01*
X172613161Y-88466926D01*
X172806329Y-88672009D01*
X172973285Y-88898579D01*
X173006238Y-89038693D01*
X172968557Y-89154609D01*
X172982780Y-89260902D01*
X173109484Y-89270175D01*
X173237660Y-89304174D01*
X173378348Y-89467231D01*
X173496742Y-89635685D01*
X173541569Y-89674999D01*
X173648979Y-89769200D01*
G37*
G36*
X165683277Y-90452040D02*
G01*
X165428138Y-90626545D01*
X164929055Y-91009419D01*
X164425447Y-91441675D01*
X163954646Y-91888827D01*
X163553986Y-92316387D01*
X163260800Y-92689867D01*
X163190541Y-92781525D01*
X163018015Y-92987550D01*
X162782567Y-93257789D01*
X162513923Y-93557700D01*
X161888045Y-94246999D01*
X161437760Y-94246999D01*
X161269556Y-94243652D01*
X161011938Y-94225059D01*
X160853102Y-94195607D01*
X160837443Y-94188933D01*
X160731682Y-94060190D01*
X160735172Y-93852522D01*
X160834880Y-93600164D01*
X161017771Y-93337354D01*
X161270814Y-93098327D01*
X161338982Y-93044942D01*
X161521129Y-92870240D01*
X161558219Y-92760848D01*
X161447321Y-92722999D01*
X161366998Y-92738246D01*
X161359349Y-92739698D01*
X161139632Y-92872029D01*
X160900751Y-93104676D01*
X160673950Y-93399520D01*
X160490470Y-93718443D01*
X160381555Y-94023326D01*
X160324448Y-94289333D01*
X160084874Y-93823666D01*
X159965775Y-93610559D01*
X159814696Y-93383389D01*
X159697937Y-93254745D01*
X159648888Y-93210843D01*
X159561411Y-93097914D01*
X159915613Y-93097914D01*
X160020560Y-93139891D01*
X160122299Y-93126763D01*
X160382993Y-93052842D01*
X160642195Y-92942728D01*
X160816925Y-92828833D01*
X160845574Y-92797444D01*
X160849272Y-92738246D01*
X160705921Y-92722999D01*
X160545882Y-92735208D01*
X160269828Y-92802027D01*
X160041232Y-92906550D01*
X159921183Y-93025249D01*
X159915613Y-93097914D01*
X159561411Y-93097914D01*
X159507824Y-93028735D01*
X159367145Y-92789078D01*
X159325775Y-92709943D01*
X159149180Y-92404481D01*
X158974299Y-92138978D01*
X158810561Y-91802024D01*
X158786558Y-91592103D01*
X159633055Y-91592103D01*
X159669201Y-92003998D01*
X159834528Y-92307238D01*
X160129883Y-92503768D01*
X160218579Y-92538603D01*
X160403913Y-92607061D01*
X160486837Y-92630697D01*
X160492923Y-92628666D01*
X160604038Y-92596010D01*
X160803680Y-92539130D01*
X160919592Y-92500851D01*
X161200206Y-92345213D01*
X161463136Y-92088526D01*
X161742352Y-91700437D01*
X161746193Y-91694484D01*
X161928081Y-91443210D01*
X162134129Y-91231798D01*
X162392125Y-91042793D01*
X162729858Y-90858737D01*
X163175115Y-90662173D01*
X163755686Y-90435645D01*
X163764617Y-90432255D01*
X163972131Y-90322946D01*
X164025024Y-90219501D01*
X163916962Y-90133774D01*
X163821200Y-90130961D01*
X163568839Y-90184982D01*
X163192285Y-90301011D01*
X163120193Y-90326744D01*
X162708801Y-90473588D01*
X162135651Y-90697251D01*
X161982070Y-90758733D01*
X161730960Y-90849463D01*
X161559413Y-90882541D01*
X161414598Y-90864057D01*
X161243678Y-90800106D01*
X161126474Y-90759690D01*
X160807509Y-90691611D01*
X160475510Y-90661340D01*
X160159554Y-90685377D01*
X159981064Y-90767002D01*
X159906020Y-90801320D01*
X159745780Y-91034315D01*
X159652823Y-91407966D01*
X159633055Y-91592103D01*
X158786558Y-91592103D01*
X158768273Y-91432185D01*
X158858994Y-91097272D01*
X158899236Y-90985504D01*
X158878417Y-90822651D01*
X158763820Y-90586346D01*
X158677564Y-90429945D01*
X158620900Y-90282740D01*
X158635111Y-90210953D01*
X159032074Y-90210953D01*
X159141811Y-90461246D01*
X159356544Y-90647126D01*
X159418700Y-90678323D01*
X159656247Y-90772930D01*
X159764665Y-90767002D01*
X159738401Y-90665063D01*
X159571907Y-90471636D01*
X159560166Y-90459618D01*
X159418074Y-90253410D01*
X159366215Y-90075125D01*
X159536693Y-90075125D01*
X159548041Y-90205823D01*
X159635619Y-90331603D01*
X159814044Y-90437663D01*
X160040701Y-90477366D01*
X160207470Y-90396540D01*
X160253608Y-90326744D01*
X160221609Y-90262547D01*
X160047796Y-90214360D01*
X160041100Y-90213005D01*
X159843186Y-90154055D01*
X159735025Y-90087397D01*
X159725836Y-90074550D01*
X159609368Y-90013666D01*
X159607699Y-90013681D01*
X159536693Y-90075125D01*
X159366215Y-90075125D01*
X159359532Y-90052151D01*
X159354178Y-89993406D01*
X159276315Y-89864519D01*
X159154161Y-89851776D01*
X159050380Y-89971522D01*
X159032074Y-90210953D01*
X158635111Y-90210953D01*
X158643131Y-90170442D01*
X158741611Y-90026340D01*
X158923046Y-89825387D01*
X159199005Y-89663857D01*
X159526729Y-89631170D01*
X159926807Y-89726369D01*
X160419828Y-89948501D01*
X160666672Y-90069635D01*
X160925175Y-90160920D01*
X161199631Y-90201690D01*
X161566650Y-90209371D01*
X161799122Y-90197901D01*
X162304559Y-90120655D01*
X162904379Y-89967938D01*
X163608229Y-89736438D01*
X164425754Y-89422842D01*
X165366602Y-89023840D01*
X166440420Y-88536119D01*
X166465774Y-88524326D01*
X166849018Y-88351143D01*
X167305094Y-88152459D01*
X167808581Y-87938577D01*
X168334059Y-87719794D01*
X168856109Y-87506412D01*
X169349311Y-87308730D01*
X169788244Y-87137047D01*
X170147488Y-87001665D01*
X170401624Y-86912882D01*
X170525232Y-86880999D01*
X170587642Y-86903625D01*
X170630817Y-87001043D01*
X170652141Y-87204847D01*
X170657860Y-87546381D01*
X170657860Y-88211763D01*
X169702175Y-88526956D01*
X169454289Y-88613560D01*
X168852594Y-88851050D01*
X168177795Y-89145989D01*
X167476679Y-89475969D01*
X166796030Y-89818578D01*
X166182634Y-90151405D01*
X166069526Y-90219501D01*
X165683277Y-90452040D01*
G37*
G36*
X175733090Y-81525283D02*
G01*
X175721176Y-81522063D01*
X175586588Y-81566306D01*
X175469654Y-81713672D01*
X175417752Y-81906833D01*
X175443868Y-82021649D01*
X175528111Y-82042445D01*
X175617737Y-81922633D01*
X175672503Y-81832293D01*
X175746419Y-81851118D01*
X175814047Y-82015795D01*
X175866922Y-82313061D01*
X175894045Y-82474566D01*
X175992095Y-82844451D01*
X176121251Y-83187230D01*
X176208595Y-83364871D01*
X176567014Y-83899954D01*
X176998848Y-84284713D01*
X177501237Y-84517083D01*
X178071319Y-84594999D01*
X178263750Y-84601741D01*
X178555522Y-84635833D01*
X178757299Y-84689045D01*
X178910929Y-84736743D01*
X179122333Y-84694543D01*
X179202560Y-84645401D01*
X179215245Y-84592392D01*
X179078083Y-84531055D01*
X179016255Y-84507169D01*
X178950137Y-84461081D01*
X178961344Y-84386556D01*
X179061750Y-84250907D01*
X179263232Y-84021450D01*
X179336561Y-83935149D01*
X179626819Y-83512582D01*
X179837837Y-83074892D01*
X179936468Y-82827232D01*
X180029426Y-82636145D01*
X180088995Y-82562999D01*
X180089763Y-82563010D01*
X180175548Y-82643668D01*
X180295129Y-82869319D01*
X180439915Y-83221225D01*
X180601317Y-83680646D01*
X180788036Y-84247959D01*
X180535194Y-84696646D01*
X180367713Y-84951926D01*
X180095463Y-85250790D01*
X179812468Y-85452384D01*
X179554628Y-85526333D01*
X179544099Y-85526277D01*
X179440048Y-85501217D01*
X179483289Y-85410566D01*
X179532234Y-85306819D01*
X179451215Y-85188532D01*
X179382683Y-85113743D01*
X179322743Y-84965632D01*
X179315777Y-84916951D01*
X179246882Y-84848999D01*
X179237658Y-84849544D01*
X179144397Y-84928399D01*
X179105098Y-85080614D01*
X179143846Y-85219564D01*
X179185013Y-85340169D01*
X179178796Y-85542740D01*
X179177258Y-85550494D01*
X179147285Y-85610866D01*
X179085801Y-85734705D01*
X178879456Y-85826724D01*
X178780740Y-85860126D01*
X178537192Y-85994352D01*
X178293798Y-86180002D01*
X178218398Y-86249299D01*
X178053406Y-86433117D01*
X177980159Y-86612545D01*
X177963546Y-86859862D01*
X177959976Y-87011109D01*
X177891228Y-87479659D01*
X177739883Y-87827435D01*
X177512385Y-88037611D01*
X177396403Y-88092934D01*
X177266646Y-88118871D01*
X177189025Y-88053150D01*
X177119109Y-87890073D01*
X177156492Y-87737609D01*
X177331997Y-87672780D01*
X177489737Y-87654063D01*
X177605949Y-87589550D01*
X177579836Y-87471351D01*
X177578034Y-87468587D01*
X177440972Y-87411437D01*
X177167818Y-87424780D01*
X176948194Y-87453414D01*
X176598209Y-87492420D01*
X176236826Y-87527314D01*
X176115987Y-87539086D01*
X175805366Y-87591908D01*
X175641042Y-87675625D01*
X175605041Y-87805355D01*
X175679390Y-87996217D01*
X175786913Y-88193333D01*
X175838443Y-87981666D01*
X175849232Y-87941074D01*
X175909867Y-87829713D01*
X176037158Y-87780848D01*
X176282456Y-87769999D01*
X176400147Y-87767304D01*
X176620948Y-87745446D01*
X176736443Y-87708801D01*
X176827352Y-87672799D01*
X176910683Y-87761149D01*
X176944148Y-87961263D01*
X176942959Y-88020993D01*
X176916423Y-88122735D01*
X176842208Y-88083266D01*
X176749628Y-88006951D01*
X176644090Y-88009672D01*
X176562777Y-88172166D01*
X176540707Y-88236987D01*
X176498602Y-88301113D01*
X176461690Y-88214499D01*
X176407404Y-88101709D01*
X176302877Y-88085343D01*
X176183698Y-88228032D01*
X176127689Y-88301701D01*
X175976870Y-88368625D01*
X175709239Y-88383892D01*
X175542848Y-88372021D01*
X175297045Y-88283046D01*
X175187178Y-88098430D01*
X175203771Y-87807367D01*
X175213635Y-87758911D01*
X175216154Y-87602725D01*
X175135095Y-87558333D01*
X174983431Y-87544857D01*
X174759976Y-87508188D01*
X174568781Y-87497887D01*
X174366303Y-87599680D01*
X174306938Y-87674103D01*
X174270494Y-87799306D01*
X174320956Y-87860825D01*
X174441015Y-87809944D01*
X174548116Y-87758757D01*
X174752014Y-87742333D01*
X174845450Y-87765682D01*
X174927537Y-87858998D01*
X174947827Y-88066333D01*
X174940887Y-88210943D01*
X174886275Y-88341250D01*
X174749798Y-88390621D01*
X174619993Y-88383172D01*
X174436955Y-88263621D01*
X174424654Y-88247341D01*
X174319010Y-88159848D01*
X174214482Y-88214499D01*
X174100445Y-88297366D01*
X173951955Y-88293067D01*
X173856117Y-88131095D01*
X173822961Y-88019446D01*
X173773615Y-87995334D01*
X173670973Y-88109928D01*
X173563764Y-88209457D01*
X173492370Y-88175473D01*
X173411542Y-88116703D01*
X173207184Y-88121201D01*
X173049973Y-88125792D01*
X172787607Y-88059285D01*
X172535953Y-87931227D01*
X172347438Y-87770564D01*
X172274490Y-87606242D01*
X172276200Y-87543609D01*
X172296650Y-87483210D01*
X172363935Y-87579988D01*
X172461996Y-87675079D01*
X172658677Y-87676642D01*
X172672270Y-87673332D01*
X172823952Y-87666990D01*
X172866556Y-87760821D01*
X172878329Y-87841945D01*
X172961216Y-87889981D01*
X173107953Y-87791874D01*
X173197778Y-87730113D01*
X173277690Y-87790377D01*
X173387617Y-87847009D01*
X173595167Y-87851512D01*
X173830676Y-87808892D01*
X174028435Y-87731494D01*
X174122733Y-87631658D01*
X174125231Y-87595658D01*
X174077294Y-87534274D01*
X173926101Y-87502458D01*
X173638485Y-87490543D01*
X173410465Y-87479040D01*
X173132024Y-87442074D01*
X172953229Y-87389918D01*
X172829395Y-87341458D01*
X172707415Y-87340038D01*
X172611810Y-87357811D01*
X172479562Y-87259326D01*
X172369484Y-87042059D01*
X172301356Y-86735462D01*
X172257503Y-86484076D01*
X172148581Y-86230178D01*
X171941825Y-85984415D01*
X171851565Y-85900405D01*
X171560611Y-85680598D01*
X171273746Y-85519128D01*
X171149663Y-85457791D01*
X171003913Y-85334613D01*
X173886271Y-85334613D01*
X173915641Y-85477082D01*
X174037558Y-85725709D01*
X174212368Y-85962969D01*
X174394316Y-86118286D01*
X174397608Y-86120031D01*
X174643882Y-86176114D01*
X174852861Y-86068186D01*
X175020611Y-85798257D01*
X175078708Y-85668326D01*
X175135879Y-85590012D01*
X175155824Y-85663081D01*
X175155860Y-85664381D01*
X175211065Y-85856047D01*
X175336267Y-86065248D01*
X175516618Y-86223023D01*
X175707085Y-86288333D01*
X175779918Y-86281914D01*
X176041504Y-86169996D01*
X176264997Y-85957306D01*
X176392291Y-85694226D01*
X176400834Y-85610866D01*
X176372039Y-85338104D01*
X176287157Y-84980053D01*
X176159935Y-84572403D01*
X176004118Y-84150844D01*
X175833450Y-83751066D01*
X175661678Y-83408759D01*
X175502547Y-83159614D01*
X175369802Y-83039320D01*
X175103313Y-82983025D01*
X174911166Y-83066019D01*
X174766925Y-83303833D01*
X174723078Y-83406840D01*
X174598824Y-83683834D01*
X174437086Y-84033166D01*
X174261560Y-84403279D01*
X174155073Y-84631148D01*
X174016417Y-84950249D01*
X173921429Y-85198105D01*
X173886271Y-85334613D01*
X171003913Y-85334613D01*
X170952063Y-85290793D01*
X170913894Y-85111924D01*
X171040134Y-84933666D01*
X171105860Y-84856368D01*
X171167559Y-84669299D01*
X171190280Y-84580247D01*
X171301734Y-84510333D01*
X171354240Y-84503073D01*
X171401439Y-84427344D01*
X171376760Y-84235166D01*
X171372141Y-84213852D01*
X171328083Y-84027589D01*
X171300696Y-83940305D01*
X171297473Y-83938807D01*
X171199109Y-83959236D01*
X171013295Y-84022367D01*
X170996803Y-84028705D01*
X170801227Y-84149163D01*
X170742810Y-84317228D01*
X170761770Y-84438486D01*
X170827760Y-84510333D01*
X170848065Y-84512793D01*
X170912710Y-84594999D01*
X170856976Y-84651378D01*
X170694610Y-84679666D01*
X170627663Y-84681663D01*
X170520042Y-84723651D01*
X170530435Y-84848999D01*
X170554313Y-84957111D01*
X170514955Y-85008572D01*
X170387026Y-84922585D01*
X170174566Y-84700833D01*
X169934266Y-84372478D01*
X169765916Y-83942118D01*
X169764314Y-83509463D01*
X169793494Y-83325384D01*
X169813995Y-83100632D01*
X169821497Y-82827945D01*
X169816026Y-82477096D01*
X169806005Y-82227172D01*
X170805095Y-82227172D01*
X170841656Y-82773757D01*
X170872210Y-82947018D01*
X170993498Y-83373178D01*
X171177041Y-83692945D01*
X171445941Y-83951339D01*
X171542468Y-84013880D01*
X171898264Y-84150082D01*
X172326741Y-84221482D01*
X172762932Y-84220821D01*
X173141871Y-84140840D01*
X173295477Y-84083862D01*
X173472072Y-84010876D01*
X173614642Y-83927418D01*
X173736981Y-83812492D01*
X173852883Y-83645100D01*
X173976143Y-83404246D01*
X174120553Y-83068935D01*
X174299908Y-82618170D01*
X174528002Y-82030954D01*
X174616649Y-81764246D01*
X174656388Y-81546922D01*
X174832908Y-81546922D01*
X174847585Y-81746273D01*
X174962857Y-81810110D01*
X175181439Y-81740033D01*
X175315696Y-81655545D01*
X175409449Y-81492369D01*
X175363487Y-81257591D01*
X175294671Y-81152348D01*
X175203364Y-81137417D01*
X175160201Y-81254377D01*
X175137916Y-81323986D01*
X175011539Y-81360211D01*
X174904433Y-81380095D01*
X174862006Y-81474364D01*
X174834447Y-81535598D01*
X174832908Y-81546922D01*
X174656388Y-81546922D01*
X174669655Y-81474364D01*
X174649639Y-81279580D01*
X174555645Y-81208333D01*
X174512067Y-81240023D01*
X174480603Y-81377666D01*
X174478730Y-81444239D01*
X174447385Y-81531111D01*
X174351637Y-81509064D01*
X174158601Y-81378148D01*
X174020904Y-81293895D01*
X173742717Y-81159065D01*
X173432475Y-81036114D01*
X173258873Y-80978621D01*
X172984453Y-80914746D01*
X172714223Y-80905050D01*
X172363454Y-80942080D01*
X171952348Y-81018023D01*
X171456279Y-81192064D01*
X171104791Y-81445492D01*
X170890268Y-81787472D01*
X170805095Y-82227172D01*
X169806005Y-82227172D01*
X169797612Y-82017856D01*
X169766284Y-81419999D01*
X169762933Y-81358194D01*
X169742760Y-80646653D01*
X169765786Y-80005043D01*
X169834911Y-79345666D01*
X169889083Y-78958682D01*
X169960211Y-78536756D01*
X170033569Y-78235290D01*
X170118615Y-78026004D01*
X170224807Y-77880617D01*
X170361605Y-77770849D01*
X170429327Y-77729740D01*
X170554357Y-77681025D01*
X170715514Y-77666792D01*
X170956517Y-77685423D01*
X171321082Y-77735297D01*
X171819942Y-77817838D01*
X172467008Y-77947771D01*
X173108692Y-78098930D01*
X173712417Y-78262373D01*
X174245609Y-78429156D01*
X174675694Y-78590339D01*
X174970096Y-78736980D01*
X174971085Y-78737607D01*
X175156295Y-78906902D01*
X175382303Y-79190568D01*
X175620338Y-79548828D01*
X175841628Y-79941903D01*
X175916390Y-80132396D01*
X175980212Y-80438557D01*
X176002862Y-80765061D01*
X175986907Y-81074446D01*
X175934914Y-81329252D01*
X175849453Y-81492018D01*
X175848225Y-81492369D01*
X175733090Y-81525283D01*
G37*
G36*
X152210000Y-107435000D02*
G01*
X152210000Y-107560000D01*
X152090000Y-107560000D01*
X151970000Y-107560000D01*
X151970000Y-107435000D01*
X151970000Y-107310000D01*
X152090000Y-107310000D01*
X152210000Y-107310000D01*
X152210000Y-107435000D01*
G37*
G36*
X152450000Y-107925000D02*
G01*
X152450000Y-108050000D01*
X152330000Y-108050000D01*
X152210000Y-108050000D01*
X152210000Y-107925000D01*
X152210000Y-107800000D01*
X152330000Y-107800000D01*
X152450000Y-107800000D01*
X152450000Y-107925000D01*
G37*
G36*
X153190000Y-103535000D02*
G01*
X153190000Y-103660000D01*
X152945000Y-103660000D01*
X152700000Y-103660000D01*
X152700000Y-103535000D01*
X152700000Y-103410000D01*
X152945000Y-103410000D01*
X153190000Y-103410000D01*
X153190000Y-103535000D01*
G37*
G36*
X152940000Y-105000000D02*
G01*
X152940000Y-105120000D01*
X152820000Y-105120000D01*
X152700000Y-105120000D01*
X152700000Y-105000000D01*
X152700000Y-104880000D01*
X152820000Y-104880000D01*
X152940000Y-104880000D01*
X152940000Y-105000000D01*
G37*
G36*
X154650000Y-104510000D02*
G01*
X154650000Y-104630000D01*
X154405000Y-104630000D01*
X154160000Y-104630000D01*
X154160000Y-104510000D01*
X154160000Y-104390000D01*
X154405000Y-104390000D01*
X154650000Y-104390000D01*
X154650000Y-104510000D01*
G37*
G36*
X154650000Y-105485000D02*
G01*
X154650000Y-105610000D01*
X154405000Y-105610000D01*
X154160000Y-105610000D01*
X154160000Y-105485000D01*
X154160000Y-105360000D01*
X154405000Y-105360000D01*
X154650000Y-105360000D01*
X154650000Y-105485000D01*
G37*
G36*
X154890000Y-102560000D02*
G01*
X154890000Y-102680000D01*
X154770000Y-102680000D01*
X154650000Y-102680000D01*
X154650000Y-102560000D01*
X154650000Y-102440000D01*
X154770000Y-102440000D01*
X154890000Y-102440000D01*
X154890000Y-102560000D01*
G37*
G36*
X154890000Y-106950000D02*
G01*
X154890000Y-107070000D01*
X154770000Y-107070000D01*
X154650000Y-107070000D01*
X154650000Y-106950000D01*
X154650000Y-106830000D01*
X154770000Y-106830000D01*
X154890000Y-106830000D01*
X154890000Y-106950000D01*
G37*
G36*
X156360000Y-102560000D02*
G01*
X156360000Y-102680000D01*
X156235000Y-102680000D01*
X156110000Y-102680000D01*
X156110000Y-102560000D01*
X156110000Y-102440000D01*
X156235000Y-102440000D01*
X156360000Y-102440000D01*
X156360000Y-102560000D01*
G37*
G36*
X157090000Y-105975000D02*
G01*
X157090000Y-106100000D01*
X156965000Y-106100000D01*
X156840000Y-106100000D01*
X156840000Y-105975000D01*
X156840000Y-105850000D01*
X156965000Y-105850000D01*
X157090000Y-105850000D01*
X157090000Y-105975000D01*
G37*
G36*
X159040000Y-105000000D02*
G01*
X159040000Y-105120000D01*
X158920000Y-105120000D01*
X158800000Y-105120000D01*
X158800000Y-105000000D01*
X158800000Y-104880000D01*
X158920000Y-104880000D01*
X159040000Y-104880000D01*
X159040000Y-105000000D01*
G37*
G36*
X152210000Y-105485000D02*
G01*
X152210000Y-105610000D01*
X152090000Y-105610000D01*
X151970000Y-105610000D01*
X151970000Y-105730000D01*
X151970000Y-105850000D01*
X151845000Y-105850000D01*
X151720000Y-105850000D01*
X151720000Y-105605000D01*
X151720000Y-105360000D01*
X151965000Y-105360000D01*
X152210000Y-105360000D01*
X152210000Y-105485000D01*
G37*
G36*
X156600000Y-105975000D02*
G01*
X156600000Y-106100000D01*
X156480000Y-106100000D01*
X156360000Y-106100000D01*
X156360000Y-106340000D01*
X156360000Y-106580000D01*
X156235000Y-106580000D01*
X156110000Y-106580000D01*
X156110000Y-106215000D01*
X156110000Y-105850000D01*
X156355000Y-105850000D01*
X156600000Y-105850000D01*
X156600000Y-105975000D01*
G37*
G36*
X158430000Y-103410000D02*
G01*
X158550000Y-103410000D01*
X158550000Y-103535000D01*
X158550000Y-103660000D01*
X158430000Y-103660000D01*
X158310000Y-103660000D01*
X158310000Y-103535000D01*
X158310000Y-103410000D01*
X158430000Y-103410000D01*
G37*
G36*
X158310000Y-103290000D02*
G01*
X158310000Y-103410000D01*
X158065000Y-103410000D01*
X157820000Y-103410000D01*
X157820000Y-103290000D01*
X157820000Y-103170000D01*
X158065000Y-103170000D01*
X158310000Y-103170000D01*
X158310000Y-103290000D01*
G37*
G36*
X153430000Y-107800000D02*
G01*
X153065000Y-107800000D01*
X152700000Y-107800000D01*
X152700000Y-107435000D01*
X152700000Y-107310000D01*
X152940000Y-107310000D01*
X152940000Y-107435000D01*
X152940000Y-107560000D01*
X153065000Y-107560000D01*
X153190000Y-107560000D01*
X153190000Y-107435000D01*
X153190000Y-107310000D01*
X153065000Y-107310000D01*
X152940000Y-107310000D01*
X152700000Y-107310000D01*
X152700000Y-107070000D01*
X153065000Y-107070000D01*
X153430000Y-107070000D01*
X153430000Y-107435000D01*
X153430000Y-107800000D01*
G37*
G36*
X152940000Y-101830000D02*
G01*
X152940000Y-102440000D01*
X152330000Y-102440000D01*
X151720000Y-102440000D01*
X151720000Y-101830000D01*
X151720000Y-101460000D01*
X151970000Y-101460000D01*
X151970000Y-101825000D01*
X151970000Y-102190000D01*
X152335000Y-102190000D01*
X152700000Y-102190000D01*
X152700000Y-101825000D01*
X152700000Y-101460000D01*
X152335000Y-101460000D01*
X151970000Y-101460000D01*
X151720000Y-101460000D01*
X151720000Y-101220000D01*
X152330000Y-101220000D01*
X152940000Y-101220000D01*
X152940000Y-101825000D01*
X152940000Y-101830000D01*
G37*
G36*
X159280000Y-101830000D02*
G01*
X159280000Y-102440000D01*
X158670000Y-102440000D01*
X158060000Y-102440000D01*
X158060000Y-101830000D01*
X158060000Y-101460000D01*
X158310000Y-101460000D01*
X158310000Y-101825000D01*
X158310000Y-102190000D01*
X158675000Y-102190000D01*
X159040000Y-102190000D01*
X159040000Y-101825000D01*
X159040000Y-101460000D01*
X158675000Y-101460000D01*
X158310000Y-101460000D01*
X158060000Y-101460000D01*
X158060000Y-101220000D01*
X158670000Y-101220000D01*
X159280000Y-101220000D01*
X159280000Y-101825000D01*
X159280000Y-101830000D01*
G37*
G36*
X159280000Y-108170000D02*
G01*
X159280000Y-108780000D01*
X158670000Y-108780000D01*
X158060000Y-108780000D01*
X158060000Y-108170000D01*
X158060000Y-107800000D01*
X158310000Y-107800000D01*
X158310000Y-108165000D01*
X158310000Y-108530000D01*
X158675000Y-108530000D01*
X159040000Y-108530000D01*
X159040000Y-108165000D01*
X159040000Y-107800000D01*
X158675000Y-107800000D01*
X158310000Y-107800000D01*
X158060000Y-107800000D01*
X158060000Y-107560000D01*
X158670000Y-107560000D01*
X159280000Y-107560000D01*
X159280000Y-108165000D01*
X159280000Y-108170000D01*
G37*
G36*
X156110000Y-106705000D02*
G01*
X156110000Y-106830000D01*
X156355000Y-106830000D01*
X156600000Y-106830000D01*
X156600000Y-106705000D01*
X156600000Y-106580000D01*
X156720000Y-106580000D01*
X156840000Y-106580000D01*
X156840000Y-106705000D01*
X156840000Y-106830000D01*
X156965000Y-106830000D01*
X157090000Y-106830000D01*
X157090000Y-106705000D01*
X157090000Y-106580000D01*
X157575000Y-106580000D01*
X158060000Y-106580000D01*
X158060000Y-106705000D01*
X158060000Y-106830000D01*
X157695000Y-106830000D01*
X157330000Y-106830000D01*
X157330000Y-107070000D01*
X157330000Y-107310000D01*
X157210000Y-107310000D01*
X157090000Y-107310000D01*
X157090000Y-107190000D01*
X157090000Y-107070000D01*
X156965000Y-107070000D01*
X156840000Y-107070000D01*
X156840000Y-107190000D01*
X156840000Y-107310000D01*
X156600000Y-107310000D01*
X156360000Y-107310000D01*
X156360000Y-107435000D01*
X156360000Y-107560000D01*
X156480000Y-107560000D01*
X156600000Y-107560000D01*
X156600000Y-107680000D01*
X156600000Y-107800000D01*
X156355000Y-107800000D01*
X156110000Y-107800000D01*
X156110000Y-107555000D01*
X156110000Y-107310000D01*
X155990000Y-107310000D01*
X155870000Y-107310000D01*
X155870000Y-107555000D01*
X155870000Y-107800000D01*
X155745000Y-107800000D01*
X155620000Y-107800000D01*
X155620000Y-107925000D01*
X155620000Y-108050000D01*
X155500000Y-108050000D01*
X155380000Y-108050000D01*
X155380000Y-108170000D01*
X155380000Y-108290000D01*
X155260000Y-108290000D01*
X155140000Y-108290000D01*
X155140000Y-108410000D01*
X155140000Y-108530000D01*
X155015000Y-108530000D01*
X154890000Y-108530000D01*
X154890000Y-108410000D01*
X154890000Y-108290000D01*
X154770000Y-108290000D01*
X154650000Y-108290000D01*
X154650000Y-108410000D01*
X154650000Y-108530000D01*
X154405000Y-108530000D01*
X154160000Y-108530000D01*
X154160000Y-108410000D01*
X154160000Y-108290000D01*
X153795000Y-108290000D01*
X153430000Y-108290000D01*
X153430000Y-108170000D01*
X153430000Y-108050000D01*
X153550000Y-108050000D01*
X153670000Y-108050000D01*
X153670000Y-107925000D01*
X153670000Y-107800000D01*
X153795000Y-107800000D01*
X153920000Y-107800000D01*
X153920000Y-107925000D01*
X153920000Y-108050000D01*
X154040000Y-108050000D01*
X154160000Y-108050000D01*
X154160000Y-108170000D01*
X154160000Y-108290000D01*
X154280000Y-108290000D01*
X154400000Y-108290000D01*
X154400000Y-108170000D01*
X154400000Y-108050000D01*
X154525000Y-108050000D01*
X154650000Y-108050000D01*
X154650000Y-107925000D01*
X154650000Y-107800000D01*
X154770000Y-107800000D01*
X154890000Y-107800000D01*
X154890000Y-107925000D01*
X154890000Y-108050000D01*
X155015000Y-108050000D01*
X155140000Y-108050000D01*
X155140000Y-107805000D01*
X155140000Y-107560000D01*
X155260000Y-107560000D01*
X155380000Y-107560000D01*
X155380000Y-107680000D01*
X155380000Y-107800000D01*
X155500000Y-107800000D01*
X155620000Y-107800000D01*
X155620000Y-107555000D01*
X155620000Y-107310000D01*
X155380000Y-107310000D01*
X155140000Y-107310000D01*
X155140000Y-107190000D01*
X155140000Y-107070000D01*
X155380000Y-107070000D01*
X155620000Y-107070000D01*
X155620000Y-107190000D01*
X155620000Y-107310000D01*
X155745000Y-107310000D01*
X155870000Y-107310000D01*
X155870000Y-106945000D01*
X155870000Y-106580000D01*
X155990000Y-106580000D01*
X156110000Y-106580000D01*
X156110000Y-106705000D01*
G37*
G36*
X155140000Y-107435000D02*
G01*
X155140000Y-107560000D01*
X155015000Y-107560000D01*
X154890000Y-107560000D01*
X154890000Y-107435000D01*
X154890000Y-107310000D01*
X155015000Y-107310000D01*
X155140000Y-107310000D01*
X155140000Y-107435000D01*
G37*
G36*
X154405000Y-107310000D02*
G01*
X154650000Y-107310000D01*
X154650000Y-107435000D01*
X154650000Y-107560000D01*
X154405000Y-107560000D01*
X154160000Y-107560000D01*
X154160000Y-107435000D01*
X154160000Y-107310000D01*
X154405000Y-107310000D01*
G37*
G36*
X153795000Y-106830000D02*
G01*
X153920000Y-106830000D01*
X153920000Y-106950000D01*
X153920000Y-107070000D01*
X154040000Y-107070000D01*
X154160000Y-107070000D01*
X154160000Y-106950000D01*
X154160000Y-106830000D01*
X154040000Y-106830000D01*
X153920000Y-106830000D01*
X153920000Y-106705000D01*
X153920000Y-106580000D01*
X153795000Y-106580000D01*
X153670000Y-106580000D01*
X153670000Y-106705000D01*
X153670000Y-106830000D01*
X153430000Y-106830000D01*
X153190000Y-106830000D01*
X153190000Y-106705000D01*
X153190000Y-106580000D01*
X153065000Y-106580000D01*
X152940000Y-106580000D01*
X152940000Y-106705000D01*
X152940000Y-106830000D01*
X152695000Y-106830000D01*
X152450000Y-106830000D01*
X152450000Y-106705000D01*
X152450000Y-106580000D01*
X152330000Y-106580000D01*
X152210000Y-106580000D01*
X152210000Y-106825000D01*
X152210000Y-107070000D01*
X151965000Y-107070000D01*
X151720000Y-107070000D01*
X151720000Y-106825000D01*
X151720000Y-106580000D01*
X151845000Y-106580000D01*
X151970000Y-106580000D01*
X151970000Y-106460000D01*
X151970000Y-106340000D01*
X152210000Y-106340000D01*
X152450000Y-106340000D01*
X152450000Y-106460000D01*
X152450000Y-106580000D01*
X152695000Y-106580000D01*
X152940000Y-106580000D01*
X152940000Y-106460000D01*
X153430000Y-106460000D01*
X153430000Y-106580000D01*
X153550000Y-106580000D01*
X153670000Y-106580000D01*
X153670000Y-106460000D01*
X153670000Y-106340000D01*
X153550000Y-106340000D01*
X153430000Y-106340000D01*
X153430000Y-106460000D01*
X152940000Y-106460000D01*
X152940000Y-106340000D01*
X152695000Y-106340000D01*
X152450000Y-106340000D01*
X152450000Y-106220000D01*
X152450000Y-106100000D01*
X152330000Y-106100000D01*
X152210000Y-106100000D01*
X152210000Y-105975000D01*
X152210000Y-105850000D01*
X152330000Y-105850000D01*
X152450000Y-105850000D01*
X152450000Y-105730000D01*
X152450000Y-105610000D01*
X152575000Y-105610000D01*
X152700000Y-105610000D01*
X152700000Y-105485000D01*
X152700000Y-105360000D01*
X152945000Y-105360000D01*
X153190000Y-105360000D01*
X153190000Y-105485000D01*
X153190000Y-105610000D01*
X153065000Y-105610000D01*
X152940000Y-105610000D01*
X152940000Y-105855000D01*
X152940000Y-106100000D01*
X153305000Y-106100000D01*
X153670000Y-106100000D01*
X153670000Y-105975000D01*
X153670000Y-105850000D01*
X154035000Y-105850000D01*
X154400000Y-105850000D01*
X154400000Y-105975000D01*
X154400000Y-106100000D01*
X154280000Y-106100000D01*
X154160000Y-106100000D01*
X154160000Y-106220000D01*
X154160000Y-106340000D01*
X154405000Y-106340000D01*
X154650000Y-106340000D01*
X154650000Y-106460000D01*
X154650000Y-106580000D01*
X154525000Y-106580000D01*
X154400000Y-106580000D01*
X154400000Y-106825000D01*
X154400000Y-106830000D01*
X154400000Y-107070000D01*
X154280000Y-107070000D01*
X154160000Y-107070000D01*
X154160000Y-107190000D01*
X154160000Y-107310000D01*
X154040000Y-107310000D01*
X153920000Y-107310000D01*
X153920000Y-107190000D01*
X153920000Y-107070000D01*
X153795000Y-107070000D01*
X153670000Y-107070000D01*
X153670000Y-106950000D01*
X153670000Y-106830000D01*
X153795000Y-106830000D01*
G37*
G36*
X153430000Y-105610000D02*
G01*
X153670000Y-105610000D01*
X153670000Y-105730000D01*
X153670000Y-105850000D01*
X153430000Y-105850000D01*
X153190000Y-105850000D01*
X153190000Y-105730000D01*
X153190000Y-105610000D01*
X153430000Y-105610000D01*
G37*
G36*
X152700000Y-105240000D02*
G01*
X152700000Y-105360000D01*
X152575000Y-105360000D01*
X152450000Y-105360000D01*
X152450000Y-105240000D01*
X152450000Y-105120000D01*
X152575000Y-105120000D01*
X152700000Y-105120000D01*
X152700000Y-105240000D01*
G37*
G36*
X155505000Y-105610000D02*
G01*
X155870000Y-105610000D01*
X155870000Y-105730000D01*
X155870000Y-105850000D01*
X155745000Y-105850000D01*
X155620000Y-105850000D01*
X155620000Y-106340000D01*
X155620000Y-106830000D01*
X155380000Y-106830000D01*
X155140000Y-106830000D01*
X155140000Y-106705000D01*
X155140000Y-106580000D01*
X155015000Y-106580000D01*
X154890000Y-106580000D01*
X154890000Y-106460000D01*
X154890000Y-106340000D01*
X155015000Y-106340000D01*
X155140000Y-106340000D01*
X155140000Y-106460000D01*
X155140000Y-106580000D01*
X155260000Y-106580000D01*
X155380000Y-106580000D01*
X155380000Y-106460000D01*
X155380000Y-106340000D01*
X155260000Y-106340000D01*
X155140000Y-106340000D01*
X155140000Y-106220000D01*
X155140000Y-106100000D01*
X154895000Y-106100000D01*
X154650000Y-106100000D01*
X154650000Y-105975000D01*
X154650000Y-105850000D01*
X154895000Y-105850000D01*
X155140000Y-105850000D01*
X155140000Y-105730000D01*
X155140000Y-105610000D01*
X155505000Y-105610000D01*
G37*
G36*
X155620000Y-105360000D02*
G01*
X155380000Y-105360000D01*
X155140000Y-105360000D01*
X155140000Y-105485000D01*
X155140000Y-105610000D01*
X155015000Y-105610000D01*
X154890000Y-105610000D01*
X154890000Y-105485000D01*
X154890000Y-105360000D01*
X154770000Y-105360000D01*
X154650000Y-105360000D01*
X154650000Y-105120000D01*
X154890000Y-105120000D01*
X154890000Y-105240000D01*
X154890000Y-105360000D01*
X155015000Y-105360000D01*
X155140000Y-105360000D01*
X155140000Y-105240000D01*
X155140000Y-105120000D01*
X155015000Y-105120000D01*
X154890000Y-105120000D01*
X154650000Y-105120000D01*
X154650000Y-104880000D01*
X155015000Y-104880000D01*
X155380000Y-104880000D01*
X155380000Y-105000000D01*
X155380000Y-105120000D01*
X155500000Y-105120000D01*
X155620000Y-105120000D01*
X155620000Y-104875000D01*
X155620000Y-104630000D01*
X155500000Y-104630000D01*
X155380000Y-104630000D01*
X155380000Y-104510000D01*
X155380000Y-104390000D01*
X155625000Y-104390000D01*
X155870000Y-104390000D01*
X155870000Y-104755000D01*
X155870000Y-105120000D01*
X155745000Y-105120000D01*
X155620000Y-105120000D01*
X155620000Y-105240000D01*
X155620000Y-105360000D01*
G37*
G36*
X157330000Y-102190000D02*
G01*
X157210000Y-102190000D01*
X157090000Y-102190000D01*
X157090000Y-102315000D01*
X157090000Y-102440000D01*
X156965000Y-102440000D01*
X156840000Y-102440000D01*
X156840000Y-102560000D01*
X156840000Y-102680000D01*
X156965000Y-102680000D01*
X157090000Y-102680000D01*
X157090000Y-102560000D01*
X157090000Y-102440000D01*
X157210000Y-102440000D01*
X157330000Y-102440000D01*
X157330000Y-102560000D01*
X157330000Y-102680000D01*
X157210000Y-102680000D01*
X157090000Y-102680000D01*
X157090000Y-102800000D01*
X157090000Y-102920000D01*
X156845000Y-102920000D01*
X156600000Y-102920000D01*
X156600000Y-103165000D01*
X156600000Y-103410000D01*
X156720000Y-103410000D01*
X156840000Y-103410000D01*
X156840000Y-103290000D01*
X156840000Y-103170000D01*
X157085000Y-103170000D01*
X157330000Y-103170000D01*
X157330000Y-103415000D01*
X157330000Y-103660000D01*
X157455000Y-103660000D01*
X157580000Y-103660000D01*
X157580000Y-103535000D01*
X157580000Y-103410000D01*
X157700000Y-103410000D01*
X157820000Y-103410000D01*
X157820000Y-103535000D01*
X157820000Y-103660000D01*
X157700000Y-103660000D01*
X157580000Y-103660000D01*
X157580000Y-103780000D01*
X157580000Y-103900000D01*
X157335000Y-103900000D01*
X157090000Y-103900000D01*
X157090000Y-103655000D01*
X157090000Y-103410000D01*
X156965000Y-103410000D01*
X156840000Y-103410000D01*
X156840000Y-103535000D01*
X156840000Y-103655000D01*
X156840000Y-103780000D01*
X156840000Y-103900000D01*
X156600000Y-103900000D01*
X156360000Y-103900000D01*
X156360000Y-104145000D01*
X156360000Y-104390000D01*
X156235000Y-104390000D01*
X156110000Y-104390000D01*
X156110000Y-104265000D01*
X156110000Y-104140000D01*
X155990000Y-104140000D01*
X155870000Y-104140000D01*
X155870000Y-104020000D01*
X155870000Y-103900000D01*
X155745000Y-103900000D01*
X155620000Y-103900000D01*
X155620000Y-104020000D01*
X155620000Y-104140000D01*
X155500000Y-104140000D01*
X155380000Y-104140000D01*
X155380000Y-104265000D01*
X155380000Y-104390000D01*
X155260000Y-104390000D01*
X155140000Y-104390000D01*
X155140000Y-104510000D01*
X155140000Y-104630000D01*
X155015000Y-104630000D01*
X154890000Y-104630000D01*
X154890000Y-104385000D01*
X154890000Y-104140000D01*
X154525000Y-104140000D01*
X154160000Y-104140000D01*
X154160000Y-104020000D01*
X154160000Y-103900000D01*
X154040000Y-103900000D01*
X153920000Y-103900000D01*
X153920000Y-103780000D01*
X153920000Y-103660000D01*
X154040000Y-103660000D01*
X154160000Y-103660000D01*
X154160000Y-103535000D01*
X154160000Y-103410000D01*
X154405000Y-103410000D01*
X154650000Y-103410000D01*
X154650000Y-103655000D01*
X154650000Y-103900000D01*
X154895000Y-103900000D01*
X155140000Y-103900000D01*
X155140000Y-103780000D01*
X155140000Y-103660000D01*
X155015000Y-103660000D01*
X154890000Y-103660000D01*
X154890000Y-103415000D01*
X154890000Y-103410000D01*
X155140000Y-103410000D01*
X155140000Y-103535000D01*
X155140000Y-103660000D01*
X155380000Y-103660000D01*
X155620000Y-103660000D01*
X155870000Y-103660000D01*
X155870000Y-103780000D01*
X155870000Y-103900000D01*
X155990000Y-103900000D01*
X156110000Y-103900000D01*
X156110000Y-103780000D01*
X156110000Y-103660000D01*
X155990000Y-103660000D01*
X155870000Y-103660000D01*
X155620000Y-103660000D01*
X155620000Y-103535000D01*
X155620000Y-103410000D01*
X155380000Y-103410000D01*
X155140000Y-103410000D01*
X154890000Y-103410000D01*
X154890000Y-103170000D01*
X154770000Y-103170000D01*
X154650000Y-103170000D01*
X154650000Y-103045000D01*
X154650000Y-102920000D01*
X154525000Y-102920000D01*
X154400000Y-102920000D01*
X154400000Y-102800000D01*
X154400000Y-102680000D01*
X154525000Y-102680000D01*
X154650000Y-102680000D01*
X154650000Y-102800000D01*
X154650000Y-102920000D01*
X154895000Y-102920000D01*
X155140000Y-102920000D01*
X155140000Y-102680000D01*
X155140000Y-102440000D01*
X155260000Y-102440000D01*
X155380000Y-102440000D01*
X155380000Y-102560000D01*
X155380000Y-102680000D01*
X155500000Y-102680000D01*
X155620000Y-102680000D01*
X155620000Y-102560000D01*
X155620000Y-102440000D01*
X155745000Y-102440000D01*
X155870000Y-102440000D01*
X155870000Y-102560000D01*
X155870000Y-102680000D01*
X155745000Y-102680000D01*
X155620000Y-102680000D01*
X155620000Y-102800000D01*
X155620000Y-102920000D01*
X155500000Y-102920000D01*
X155380000Y-102920000D01*
X155380000Y-103045000D01*
X155380000Y-103170000D01*
X155500000Y-103170000D01*
X155620000Y-103170000D01*
X155620000Y-103290000D01*
X155620000Y-103410000D01*
X155745000Y-103410000D01*
X155870000Y-103410000D01*
X155870000Y-103165000D01*
X155870000Y-102920000D01*
X156115000Y-102920000D01*
X156360000Y-102920000D01*
X156360000Y-102800000D01*
X156360000Y-102680000D01*
X156480000Y-102680000D01*
X156600000Y-102680000D01*
X156600000Y-102560000D01*
X156600000Y-102440000D01*
X156480000Y-102440000D01*
X156360000Y-102440000D01*
X156360000Y-102315000D01*
X156360000Y-102190000D01*
X156235000Y-102190000D01*
X156110000Y-102190000D01*
X156110000Y-102315000D01*
X156110000Y-102440000D01*
X155990000Y-102440000D01*
X155870000Y-102440000D01*
X155870000Y-102195000D01*
X155870000Y-101950000D01*
X155990000Y-101950000D01*
X156110000Y-101950000D01*
X156360000Y-101950000D01*
X156360000Y-102070000D01*
X156360000Y-102190000D01*
X156480000Y-102190000D01*
X156600000Y-102190000D01*
X156600000Y-102070000D01*
X156600000Y-101950000D01*
X156480000Y-101950000D01*
X156360000Y-101950000D01*
X156110000Y-101950000D01*
X156110000Y-101825000D01*
X156110000Y-101700000D01*
X156235000Y-101700000D01*
X156360000Y-101700000D01*
X156360000Y-101580000D01*
X156360000Y-101460000D01*
X156480000Y-101460000D01*
X156600000Y-101460000D01*
X156600000Y-101580000D01*
X156600000Y-101700000D01*
X156720000Y-101700000D01*
X156840000Y-101700000D01*
X156840000Y-101825000D01*
X156840000Y-101950000D01*
X157085000Y-101950000D01*
X157330000Y-101950000D01*
X157330000Y-102070000D01*
X157330000Y-102190000D01*
G37*
G36*
X154890000Y-101945000D02*
G01*
X154890000Y-102190000D01*
X154770000Y-102190000D01*
X154650000Y-102190000D01*
X154650000Y-102315000D01*
X154650000Y-102440000D01*
X154525000Y-102440000D01*
X154400000Y-102440000D01*
X154400000Y-102560000D01*
X154400000Y-102680000D01*
X154280000Y-102680000D01*
X154160000Y-102680000D01*
X154160000Y-102435000D01*
X154160000Y-102190000D01*
X154040000Y-102190000D01*
X153920000Y-102190000D01*
X153920000Y-102070000D01*
X153920000Y-101950000D01*
X154040000Y-101950000D01*
X154160000Y-101950000D01*
X154160000Y-102070000D01*
X154160000Y-102190000D01*
X154405000Y-102190000D01*
X154650000Y-102190000D01*
X154650000Y-101945000D01*
X154650000Y-101700000D01*
X154770000Y-101700000D01*
X154890000Y-101700000D01*
X154890000Y-101945000D01*
G37*
G36*
X155015000Y-102190000D02*
G01*
X155140000Y-102190000D01*
X155140000Y-102315000D01*
X155140000Y-102440000D01*
X155015000Y-102440000D01*
X154890000Y-102440000D01*
X154890000Y-102315000D01*
X154890000Y-102190000D01*
X155015000Y-102190000D01*
G37*
G36*
X160500000Y-103165000D02*
G01*
X160500000Y-104630000D01*
X160500000Y-105000000D01*
X160500000Y-106460000D01*
X160500000Y-108165000D01*
X160500000Y-110000000D01*
X155500000Y-110000000D01*
X150500000Y-110000000D01*
X150500000Y-108530000D01*
X151480000Y-108530000D01*
X151480000Y-108655000D01*
X151480000Y-108780000D01*
X151600000Y-108780000D01*
X151720000Y-108780000D01*
X151720000Y-108900000D01*
X151720000Y-109020000D01*
X151845000Y-109020000D01*
X151970000Y-109020000D01*
X151970000Y-108775000D01*
X151970000Y-108530000D01*
X151725000Y-108530000D01*
X151480000Y-108530000D01*
X150500000Y-108530000D01*
X150500000Y-105120000D01*
X151480000Y-105120000D01*
X151480000Y-105485000D01*
X151480000Y-105850000D01*
X151600000Y-105850000D01*
X151720000Y-105850000D01*
X151720000Y-105975000D01*
X151720000Y-106100000D01*
X151845000Y-106100000D01*
X151970000Y-106100000D01*
X151970000Y-106220000D01*
X151970000Y-106340000D01*
X151845000Y-106340000D01*
X151720000Y-106340000D01*
X151720000Y-106460000D01*
X151720000Y-106580000D01*
X151600000Y-106580000D01*
X151480000Y-106580000D01*
X151480000Y-106825000D01*
X151480000Y-107070000D01*
X151600000Y-107070000D01*
X151720000Y-107070000D01*
X151720000Y-107315000D01*
X151720000Y-107560000D01*
X151600000Y-107560000D01*
X151480000Y-107560000D01*
X151480000Y-107680000D01*
X151480000Y-107800000D01*
X151600000Y-107800000D01*
X151720000Y-107800000D01*
X151720000Y-108045000D01*
X151720000Y-108290000D01*
X152085000Y-108290000D01*
X152450000Y-108290000D01*
X152450000Y-108170000D01*
X152450000Y-108050000D01*
X152575000Y-108050000D01*
X152700000Y-108050000D01*
X152700000Y-108290000D01*
X152700000Y-108530000D01*
X152455000Y-108530000D01*
X152210000Y-108530000D01*
X152210000Y-108655000D01*
X152210000Y-108775000D01*
X152210000Y-108780000D01*
X152455000Y-108780000D01*
X152700000Y-108780000D01*
X152940000Y-108780000D01*
X152940000Y-108900000D01*
X152940000Y-109020000D01*
X153065000Y-109020000D01*
X153190000Y-109020000D01*
X153190000Y-108900000D01*
X153190000Y-108780000D01*
X153065000Y-108780000D01*
X152940000Y-108780000D01*
X152700000Y-108780000D01*
X152700000Y-108655000D01*
X152700000Y-108530000D01*
X153065000Y-108530000D01*
X153430000Y-108530000D01*
X153430000Y-108655000D01*
X153430000Y-108780000D01*
X153550000Y-108780000D01*
X153670000Y-108780000D01*
X153670000Y-108900000D01*
X153670000Y-109020000D01*
X153795000Y-109020000D01*
X153920000Y-109020000D01*
X153920000Y-108775000D01*
X153920000Y-108530000D01*
X154040000Y-108530000D01*
X154160000Y-108530000D01*
X154160000Y-108655000D01*
X154160000Y-108780000D01*
X154280000Y-108780000D01*
X154400000Y-108780000D01*
X154400000Y-108900000D01*
X154400000Y-109020000D01*
X154525000Y-109020000D01*
X154650000Y-109020000D01*
X154650000Y-108900000D01*
X154650000Y-108780000D01*
X154895000Y-108780000D01*
X155140000Y-108780000D01*
X155140000Y-108900000D01*
X155140000Y-109020000D01*
X155505000Y-109020000D01*
X155870000Y-109020000D01*
X155870000Y-108900000D01*
X155870000Y-108780000D01*
X155745000Y-108780000D01*
X155620000Y-108780000D01*
X155620000Y-108655000D01*
X155620000Y-108530000D01*
X155500000Y-108530000D01*
X155380000Y-108530000D01*
X155380000Y-108410000D01*
X155380000Y-108290000D01*
X155625000Y-108290000D01*
X155870000Y-108290000D01*
X155870000Y-108170000D01*
X155870000Y-108050000D01*
X156235000Y-108050000D01*
X156600000Y-108050000D01*
X156600000Y-108170000D01*
X156600000Y-108290000D01*
X156480000Y-108290000D01*
X156360000Y-108290000D01*
X156360000Y-108535000D01*
X156360000Y-108780000D01*
X156235000Y-108780000D01*
X156110000Y-108780000D01*
X156110000Y-108900000D01*
X156110000Y-109020000D01*
X156475000Y-109020000D01*
X156840000Y-109020000D01*
X156840000Y-108900000D01*
X156840000Y-108780000D01*
X157330000Y-108780000D01*
X157330000Y-108900000D01*
X157330000Y-109020000D01*
X157455000Y-109020000D01*
X157580000Y-109020000D01*
X157580000Y-108900000D01*
X157580000Y-108780000D01*
X157455000Y-108780000D01*
X157330000Y-108780000D01*
X156840000Y-108780000D01*
X156720000Y-108780000D01*
X156600000Y-108780000D01*
X156600000Y-108655000D01*
X156600000Y-108530000D01*
X156720000Y-108530000D01*
X156840000Y-108530000D01*
X156840000Y-107920000D01*
X156840000Y-107310000D01*
X156965000Y-107310000D01*
X157090000Y-107310000D01*
X157090000Y-107680000D01*
X157090000Y-108050000D01*
X157210000Y-108050000D01*
X157330000Y-108050000D01*
X157330000Y-108170000D01*
X157330000Y-108290000D01*
X157210000Y-108290000D01*
X157090000Y-108290000D01*
X157090000Y-108410000D01*
X157090000Y-108530000D01*
X157335000Y-108530000D01*
X157580000Y-108530000D01*
X157580000Y-108045000D01*
X157580000Y-107560000D01*
X157455000Y-107560000D01*
X157330000Y-107560000D01*
X157330000Y-107435000D01*
X157330000Y-107310000D01*
X157455000Y-107310000D01*
X157580000Y-107310000D01*
X157820000Y-107310000D01*
X157820000Y-108165000D01*
X157820000Y-108900000D01*
X157820000Y-109020000D01*
X158675000Y-109020000D01*
X159530000Y-109020000D01*
X159530000Y-108165000D01*
X159530000Y-107310000D01*
X158675000Y-107310000D01*
X157820000Y-107310000D01*
X157580000Y-107310000D01*
X157580000Y-107190000D01*
X157580000Y-107070000D01*
X157945000Y-107070000D01*
X158310000Y-107070000D01*
X158310000Y-106950000D01*
X158310000Y-106830000D01*
X158430000Y-106830000D01*
X158550000Y-106830000D01*
X158800000Y-106830000D01*
X158800000Y-106950000D01*
X158800000Y-107070000D01*
X158920000Y-107070000D01*
X159040000Y-107070000D01*
X159040000Y-106950000D01*
X159040000Y-106830000D01*
X158920000Y-106830000D01*
X158800000Y-106830000D01*
X158550000Y-106830000D01*
X158550000Y-106705000D01*
X158550000Y-106580000D01*
X158675000Y-106580000D01*
X158800000Y-106580000D01*
X158800000Y-106460000D01*
X158800000Y-106340000D01*
X159040000Y-106340000D01*
X159280000Y-106340000D01*
X159280000Y-106705000D01*
X159280000Y-106950000D01*
X159280000Y-107070000D01*
X159405000Y-107070000D01*
X159530000Y-107070000D01*
X159530000Y-106460000D01*
X159530000Y-105850000D01*
X159405000Y-105850000D01*
X159280000Y-105850000D01*
X159280000Y-105975000D01*
X159280000Y-106100000D01*
X159040000Y-106100000D01*
X158800000Y-106100000D01*
X158800000Y-106220000D01*
X158800000Y-106340000D01*
X158675000Y-106340000D01*
X158550000Y-106340000D01*
X158550000Y-106460000D01*
X158550000Y-106580000D01*
X158305000Y-106580000D01*
X158060000Y-106580000D01*
X158060000Y-106460000D01*
X158060000Y-106340000D01*
X157695000Y-106340000D01*
X157330000Y-106340000D01*
X157330000Y-106095000D01*
X157330000Y-105850000D01*
X157455000Y-105850000D01*
X157580000Y-105850000D01*
X157580000Y-105975000D01*
X157580000Y-106100000D01*
X157820000Y-106100000D01*
X158060000Y-106100000D01*
X158060000Y-105975000D01*
X158060000Y-105850000D01*
X158185000Y-105850000D01*
X158310000Y-105850000D01*
X158310000Y-105975000D01*
X158310000Y-106100000D01*
X158430000Y-106100000D01*
X158550000Y-106100000D01*
X158550000Y-105855000D01*
X158550000Y-105610000D01*
X158305000Y-105610000D01*
X158060000Y-105610000D01*
X158060000Y-105730000D01*
X158060000Y-105850000D01*
X157820000Y-105850000D01*
X157580000Y-105850000D01*
X157580000Y-105730000D01*
X157580000Y-105610000D01*
X157210000Y-105610000D01*
X156840000Y-105610000D01*
X156840000Y-105730000D01*
X156840000Y-105850000D01*
X156720000Y-105850000D01*
X156600000Y-105850000D01*
X156600000Y-105730000D01*
X156600000Y-105610000D01*
X156235000Y-105610000D01*
X155870000Y-105610000D01*
X155870000Y-105485000D01*
X157820000Y-105485000D01*
X157820000Y-105610000D01*
X157940000Y-105610000D01*
X158060000Y-105610000D01*
X158060000Y-105485000D01*
X158060000Y-105360000D01*
X157940000Y-105360000D01*
X157820000Y-105360000D01*
X157820000Y-105485000D01*
X155870000Y-105485000D01*
X155870000Y-105360000D01*
X156235000Y-105360000D01*
X156600000Y-105360000D01*
X156600000Y-105240000D01*
X156600000Y-105120000D01*
X156355000Y-105120000D01*
X156110000Y-105120000D01*
X156110000Y-105000000D01*
X156110000Y-104880000D01*
X156355000Y-104880000D01*
X156600000Y-104880000D01*
X156600000Y-104755000D01*
X156600000Y-104630000D01*
X156720000Y-104630000D01*
X156840000Y-104630000D01*
X156840000Y-104385000D01*
X156840000Y-104140000D01*
X157085000Y-104140000D01*
X157330000Y-104140000D01*
X157330000Y-104265000D01*
X157330000Y-104390000D01*
X157210000Y-104390000D01*
X157090000Y-104390000D01*
X157090000Y-104755000D01*
X157090000Y-105120000D01*
X156965000Y-105120000D01*
X156840000Y-105120000D01*
X156840000Y-105240000D01*
X156840000Y-105360000D01*
X157210000Y-105360000D01*
X157580000Y-105360000D01*
X157580000Y-104995000D01*
X157580000Y-104880000D01*
X157820000Y-104880000D01*
X157820000Y-105000000D01*
X157820000Y-105120000D01*
X158065000Y-105120000D01*
X158310000Y-105120000D01*
X158310000Y-105240000D01*
X158310000Y-105360000D01*
X158430000Y-105360000D01*
X158550000Y-105360000D01*
X158550000Y-105240000D01*
X158550000Y-105120000D01*
X158675000Y-105120000D01*
X158800000Y-105120000D01*
X158800000Y-105240000D01*
X158800000Y-105360000D01*
X159040000Y-105360000D01*
X159280000Y-105360000D01*
X159280000Y-105240000D01*
X159280000Y-105120000D01*
X159405000Y-105120000D01*
X159530000Y-105120000D01*
X159530000Y-104875000D01*
X159530000Y-104630000D01*
X159405000Y-104630000D01*
X159280000Y-104630000D01*
X159280000Y-104510000D01*
X159280000Y-104390000D01*
X159160000Y-104390000D01*
X159040000Y-104390000D01*
X159040000Y-104510000D01*
X159040000Y-104630000D01*
X158675000Y-104630000D01*
X158310000Y-104630000D01*
X158310000Y-104755000D01*
X158310000Y-104880000D01*
X158065000Y-104880000D01*
X157820000Y-104880000D01*
X157580000Y-104880000D01*
X157580000Y-104630000D01*
X157820000Y-104630000D01*
X158060000Y-104630000D01*
X158060000Y-104510000D01*
X158060000Y-104390000D01*
X157820000Y-104390000D01*
X157580000Y-104390000D01*
X157580000Y-104145000D01*
X157580000Y-103900000D01*
X157700000Y-103900000D01*
X157820000Y-103900000D01*
X157820000Y-104020000D01*
X157820000Y-104140000D01*
X157940000Y-104140000D01*
X158060000Y-104140000D01*
X158060000Y-104020000D01*
X158060000Y-103900000D01*
X157940000Y-103900000D01*
X157820000Y-103900000D01*
X157820000Y-103780000D01*
X157820000Y-103660000D01*
X158065000Y-103660000D01*
X158310000Y-103660000D01*
X158310000Y-103780000D01*
X158310000Y-103900000D01*
X158430000Y-103900000D01*
X158550000Y-103900000D01*
X158550000Y-104145000D01*
X158550000Y-104390000D01*
X158795000Y-104390000D01*
X159040000Y-104390000D01*
X159040000Y-104265000D01*
X159040000Y-104140000D01*
X159160000Y-104140000D01*
X159280000Y-104140000D01*
X159280000Y-103900000D01*
X159280000Y-103660000D01*
X159160000Y-103660000D01*
X159040000Y-103660000D01*
X159040000Y-103535000D01*
X159040000Y-103410000D01*
X158795000Y-103410000D01*
X158550000Y-103410000D01*
X158550000Y-103290000D01*
X158550000Y-103170000D01*
X158795000Y-103170000D01*
X159040000Y-103170000D01*
X159040000Y-103045000D01*
X159040000Y-102920000D01*
X159280000Y-102920000D01*
X159280000Y-103165000D01*
X159280000Y-103410000D01*
X159405000Y-103410000D01*
X159530000Y-103410000D01*
X159530000Y-103165000D01*
X159530000Y-102920000D01*
X159405000Y-102920000D01*
X159280000Y-102920000D01*
X159040000Y-102920000D01*
X158430000Y-102920000D01*
X157820000Y-102920000D01*
X157820000Y-103045000D01*
X157820000Y-103170000D01*
X157575000Y-103170000D01*
X157330000Y-103170000D01*
X157330000Y-103045000D01*
X157330000Y-102920000D01*
X157455000Y-102920000D01*
X157580000Y-102920000D01*
X157580000Y-102190000D01*
X157580000Y-101460000D01*
X157455000Y-101460000D01*
X157330000Y-101460000D01*
X157330000Y-101215000D01*
X157330000Y-100970000D01*
X157820000Y-100970000D01*
X157820000Y-101825000D01*
X157820000Y-102680000D01*
X158675000Y-102680000D01*
X159530000Y-102680000D01*
X159530000Y-101825000D01*
X159530000Y-100970000D01*
X158675000Y-100970000D01*
X157820000Y-100970000D01*
X157330000Y-100970000D01*
X157085000Y-100970000D01*
X156840000Y-100970000D01*
X156840000Y-101215000D01*
X156840000Y-101460000D01*
X156720000Y-101460000D01*
X156600000Y-101460000D01*
X156600000Y-101215000D01*
X156600000Y-100970000D01*
X156235000Y-100970000D01*
X155870000Y-100970000D01*
X155870000Y-101095000D01*
X155870000Y-101220000D01*
X155745000Y-101220000D01*
X155620000Y-101220000D01*
X155620000Y-101095000D01*
X155620000Y-100970000D01*
X155500000Y-100970000D01*
X155380000Y-100970000D01*
X155380000Y-101095000D01*
X155380000Y-101220000D01*
X155260000Y-101220000D01*
X155140000Y-101220000D01*
X155140000Y-101095000D01*
X155140000Y-100970000D01*
X155015000Y-100970000D01*
X154890000Y-100970000D01*
X154890000Y-101095000D01*
X154890000Y-101220000D01*
X155015000Y-101220000D01*
X155140000Y-101220000D01*
X155140000Y-101340000D01*
X155140000Y-101460000D01*
X155625000Y-101460000D01*
X156110000Y-101460000D01*
X156110000Y-101580000D01*
X156110000Y-101700000D01*
X155745000Y-101700000D01*
X155380000Y-101700000D01*
X155380000Y-101825000D01*
X155380000Y-101950000D01*
X155500000Y-101950000D01*
X155620000Y-101950000D01*
X155620000Y-102070000D01*
X155620000Y-102190000D01*
X155380000Y-102190000D01*
X155140000Y-102190000D01*
X155140000Y-101945000D01*
X155140000Y-101700000D01*
X155015000Y-101700000D01*
X154890000Y-101700000D01*
X154890000Y-101580000D01*
X154890000Y-101460000D01*
X154525000Y-101460000D01*
X154160000Y-101460000D01*
X154160000Y-101340000D01*
X154160000Y-101220000D01*
X154405000Y-101220000D01*
X154650000Y-101220000D01*
X154650000Y-101095000D01*
X154650000Y-100970000D01*
X154405000Y-100970000D01*
X154160000Y-100970000D01*
X154160000Y-101095000D01*
X154160000Y-101220000D01*
X153915000Y-101220000D01*
X153670000Y-101220000D01*
X153670000Y-101095000D01*
X153670000Y-100970000D01*
X153550000Y-100970000D01*
X153430000Y-100970000D01*
X153430000Y-101215000D01*
X153430000Y-101460000D01*
X153550000Y-101460000D01*
X153670000Y-101460000D01*
X153670000Y-101580000D01*
X153670000Y-101700000D01*
X153795000Y-101700000D01*
X153920000Y-101700000D01*
X153920000Y-101825000D01*
X153920000Y-101950000D01*
X153675000Y-101950000D01*
X153430000Y-101950000D01*
X153430000Y-102070000D01*
X153430000Y-102190000D01*
X153675000Y-102190000D01*
X153920000Y-102190000D01*
X153920000Y-102435000D01*
X153920000Y-102680000D01*
X153795000Y-102680000D01*
X153670000Y-102680000D01*
X153670000Y-102560000D01*
X153670000Y-102440000D01*
X153550000Y-102440000D01*
X153430000Y-102440000D01*
X153430000Y-102560000D01*
X153430000Y-102680000D01*
X153550000Y-102680000D01*
X153670000Y-102680000D01*
X153670000Y-102800000D01*
X153670000Y-102920000D01*
X153550000Y-102920000D01*
X153430000Y-102920000D01*
X153430000Y-103045000D01*
X153430000Y-103170000D01*
X153550000Y-103170000D01*
X153670000Y-103170000D01*
X153670000Y-103045000D01*
X153670000Y-102920000D01*
X153795000Y-102920000D01*
X153920000Y-102920000D01*
X153920000Y-103045000D01*
X153920000Y-103290000D01*
X153920000Y-103410000D01*
X153920000Y-103660000D01*
X153795000Y-103660000D01*
X153670000Y-103660000D01*
X153670000Y-103780000D01*
X153670000Y-103900000D01*
X153795000Y-103900000D01*
X153920000Y-103900000D01*
X153920000Y-104145000D01*
X153920000Y-104390000D01*
X153795000Y-104390000D01*
X153670000Y-104390000D01*
X153670000Y-104265000D01*
X153670000Y-104140000D01*
X153550000Y-104140000D01*
X153430000Y-104140000D01*
X153430000Y-104385000D01*
X153430000Y-104630000D01*
X153550000Y-104630000D01*
X153670000Y-104630000D01*
X153670000Y-104755000D01*
X153670000Y-104880000D01*
X153795000Y-104880000D01*
X153920000Y-104880000D01*
X153920000Y-104755000D01*
X153920000Y-104630000D01*
X154040000Y-104630000D01*
X154160000Y-104630000D01*
X154160000Y-104755000D01*
X154160000Y-104880000D01*
X154280000Y-104880000D01*
X154400000Y-104880000D01*
X154400000Y-105000000D01*
X154400000Y-105120000D01*
X154280000Y-105120000D01*
X154160000Y-105120000D01*
X154160000Y-105240000D01*
X154160000Y-105360000D01*
X153915000Y-105360000D01*
X153670000Y-105360000D01*
X153670000Y-105240000D01*
X153670000Y-105120000D01*
X153550000Y-105120000D01*
X153430000Y-105120000D01*
X153430000Y-105000000D01*
X153430000Y-104880000D01*
X153310000Y-104880000D01*
X153190000Y-104880000D01*
X153190000Y-104755000D01*
X153190000Y-104630000D01*
X153065000Y-104630000D01*
X152940000Y-104630000D01*
X152940000Y-104510000D01*
X152940000Y-104390000D01*
X152820000Y-104390000D01*
X152700000Y-104390000D01*
X152700000Y-104265000D01*
X152700000Y-104140000D01*
X152455000Y-104140000D01*
X152210000Y-104140000D01*
X152210000Y-104020000D01*
X152210000Y-103900000D01*
X152090000Y-103900000D01*
X151970000Y-103900000D01*
X151970000Y-104145000D01*
X151970000Y-104390000D01*
X152210000Y-104390000D01*
X152450000Y-104390000D01*
X152450000Y-104510000D01*
X152450000Y-104630000D01*
X152575000Y-104630000D01*
X152700000Y-104630000D01*
X152700000Y-104755000D01*
X152700000Y-104880000D01*
X152575000Y-104880000D01*
X152450000Y-104880000D01*
X152450000Y-105000000D01*
X152450000Y-105120000D01*
X151965000Y-105120000D01*
X151480000Y-105120000D01*
X150500000Y-105120000D01*
X150500000Y-105000000D01*
X150500000Y-104390000D01*
X151480000Y-104390000D01*
X151480000Y-104635000D01*
X151480000Y-104880000D01*
X151845000Y-104880000D01*
X152210000Y-104880000D01*
X152210000Y-104755000D01*
X152210000Y-104630000D01*
X151965000Y-104630000D01*
X151720000Y-104630000D01*
X151720000Y-104510000D01*
X151720000Y-104390000D01*
X151600000Y-104390000D01*
X151480000Y-104390000D01*
X150500000Y-104390000D01*
X150500000Y-103170000D01*
X151480000Y-103170000D01*
X151480000Y-103535000D01*
X151480000Y-103900000D01*
X151600000Y-103900000D01*
X151720000Y-103900000D01*
X151720000Y-103780000D01*
X151720000Y-103660000D01*
X151845000Y-103660000D01*
X151970000Y-103660000D01*
X151970000Y-103535000D01*
X151970000Y-103410000D01*
X152210000Y-103410000D01*
X152450000Y-103410000D01*
X152450000Y-103535000D01*
X152450000Y-103660000D01*
X152575000Y-103660000D01*
X152700000Y-103660000D01*
X152700000Y-103780000D01*
X152700000Y-103900000D01*
X152820000Y-103900000D01*
X152940000Y-103900000D01*
X152940000Y-104020000D01*
X152940000Y-104140000D01*
X153065000Y-104140000D01*
X153190000Y-104140000D01*
X153190000Y-104020000D01*
X153190000Y-103900000D01*
X153310000Y-103900000D01*
X153430000Y-103900000D01*
X153430000Y-103655000D01*
X153430000Y-103410000D01*
X153310000Y-103410000D01*
X153190000Y-103410000D01*
X153190000Y-103165000D01*
X153190000Y-102920000D01*
X152580000Y-102920000D01*
X151970000Y-102920000D01*
X151970000Y-103045000D01*
X151970000Y-103170000D01*
X151725000Y-103170000D01*
X151480000Y-103170000D01*
X150500000Y-103170000D01*
X150500000Y-100970000D01*
X151480000Y-100970000D01*
X151480000Y-101825000D01*
X151480000Y-102680000D01*
X152335000Y-102680000D01*
X153190000Y-102680000D01*
X153190000Y-101825000D01*
X153190000Y-100970000D01*
X152335000Y-100970000D01*
X151480000Y-100970000D01*
X150500000Y-100970000D01*
X150500000Y-100000000D01*
X155500000Y-100000000D01*
X160500000Y-100000000D01*
X160500000Y-101825000D01*
X160500000Y-103165000D01*
G37*
%TD*%
%LPC*%
D14*
%TO.C,Volume*%
X168600000Y-111400000D03*
X171140000Y-111400000D03*
X173680000Y-111400000D03*
%TD*%
%TO.C,Audio out*%
X192504600Y-111682200D03*
X195044600Y-111682200D03*
%TD*%
D15*
%TO.C,C12*%
X175150000Y-106650000D03*
X175150000Y-104150000D03*
%TD*%
D16*
%TO.C,U1*%
X184380000Y-85380000D03*
D15*
X184380000Y-87920000D03*
X184380000Y-90460000D03*
X184380000Y-93000000D03*
X192000000Y-93000000D03*
X192000000Y-90460000D03*
X192000000Y-87920000D03*
X192000000Y-85380000D03*
%TD*%
%TO.C,R13*%
X186600000Y-108800000D03*
X186600000Y-101180000D03*
%TD*%
%TO.C,R4*%
X170000000Y-91000000D03*
X170000000Y-83380000D03*
%TD*%
%TO.C,C8*%
X190000000Y-74850000D03*
X190000000Y-72350000D03*
%TD*%
%TO.C,R6*%
X180000000Y-81000000D03*
X180000000Y-88620000D03*
%TD*%
D17*
%TO.C,U2*%
X169100000Y-100200000D03*
D18*
X167330000Y-100200000D03*
X165600000Y-100200000D03*
%TD*%
D19*
%TO.C,D1*%
X183000000Y-103400000D03*
D14*
X180460000Y-103400000D03*
%TD*%
D15*
%TO.C,R2*%
X159000000Y-85620000D03*
X159000000Y-78000000D03*
%TD*%
%TO.C,C5*%
X171000000Y-78000000D03*
X168500000Y-78000000D03*
%TD*%
%TO.C,R5*%
X181000000Y-78000000D03*
X173380000Y-78000000D03*
%TD*%
D20*
%TO.C,C2*%
X164500000Y-82000000D03*
D21*
X166000000Y-82000000D03*
%TD*%
D15*
%TO.C,R9*%
X195600000Y-81710000D03*
X195600000Y-74090000D03*
%TD*%
D14*
%TO.C,9V*%
X152500000Y-72500000D03*
X155040000Y-72500000D03*
%TD*%
D15*
%TO.C,C7*%
X169950000Y-73400000D03*
X172450000Y-73400000D03*
%TD*%
D22*
%TO.C,REF\u002A\u002A*%
X187000000Y-114400000D03*
%TD*%
D14*
%TO.C,Tone*%
X177860000Y-111400000D03*
X180400000Y-111400000D03*
X182940000Y-111400000D03*
%TD*%
%TO.C,Gain*%
X160920000Y-72575000D03*
X163460000Y-72575000D03*
X166000000Y-72575000D03*
%TD*%
D15*
%TO.C,R1*%
X152380000Y-89000000D03*
X160000000Y-89000000D03*
%TD*%
D22*
%TO.C,mount hole*%
X153000000Y-114000000D03*
%TD*%
D19*
%TO.C,D2*%
X180460000Y-98800000D03*
D14*
X183000000Y-98800000D03*
%TD*%
D15*
%TO.C,R10*%
X196800000Y-98800000D03*
X189180000Y-98800000D03*
%TD*%
%TO.C,C3*%
X166500000Y-95000000D03*
X169000000Y-95000000D03*
%TD*%
%TO.C,C6*%
X185000000Y-78000000D03*
X187500000Y-78000000D03*
%TD*%
%TO.C,R7*%
X176990000Y-73400000D03*
X184610000Y-73400000D03*
%TD*%
D22*
%TO.C,REF\u002A\u002A*%
X197000000Y-70500000D03*
%TD*%
D14*
%TO.C,Guitar in*%
X152282200Y-96295400D03*
X152282200Y-93755400D03*
%TD*%
D15*
%TO.C,C10*%
X173950000Y-95000000D03*
X176450000Y-95000000D03*
%TD*%
D20*
%TO.C,C1*%
X152500000Y-82500000D03*
D21*
X154000000Y-82500000D03*
%TD*%
D15*
%TO.C,R11*%
X160600000Y-99400000D03*
X160600000Y-107020000D03*
%TD*%
%TO.C,R12*%
X171420000Y-107000000D03*
X163800000Y-107000000D03*
%TD*%
%TO.C,C9*%
X196800000Y-88150000D03*
X196800000Y-90650000D03*
%TD*%
%TO.C,R3*%
X156190000Y-94000000D03*
X163810000Y-94000000D03*
%TD*%
%TO.C,R8*%
X175000000Y-83380000D03*
X175000000Y-91000000D03*
%TD*%
%TO.C,C11*%
X173900000Y-99800000D03*
X176400000Y-99800000D03*
%TD*%
%TO.C,C4*%
X164000000Y-90500000D03*
X164000000Y-88000000D03*
%TD*%
%LPD*%
M02*
