%TF.GenerationSoftware,KiCad,Pcbnew,9.0.3*%
%TF.CreationDate,2025-07-26T23:45:01+02:00*%
%TF.ProjectId,bone_xl_distortion,626f6e65-5f78-46c5-9f64-6973746f7274,v1.0.0*%
%TF.SameCoordinates,Original*%
%TF.FileFunction,Soldermask,Bot*%
%TF.FilePolarity,Negative*%
%FSLAX46Y46*%
G04 Gerber Fmt 4.6, Leading zero omitted, Abs format (unit mm)*
G04 Created by KiCad (PCBNEW 9.0.3) date 2025-07-26 23:45:01*
%MOMM*%
%LPD*%
G01*
G04 APERTURE LIST*
G04 Aperture macros list*
%AMRoundRect*
0 Rectangle with rounded corners*
0 $1 Rounding radius*
0 $2 $3 $4 $5 $6 $7 $8 $9 X,Y pos of 4 corners*
0 Add a 4 corners polygon primitive as box body*
4,1,4,$2,$3,$4,$5,$6,$7,$8,$9,$2,$3,0*
0 Add four circle primitives for the rounded corners*
1,1,$1+$1,$2,$3*
1,1,$1+$1,$4,$5*
1,1,$1+$1,$6,$7*
1,1,$1+$1,$8,$9*
0 Add four rect primitives between the rounded corners*
20,1,$1+$1,$2,$3,$4,$5,0*
20,1,$1+$1,$4,$5,$6,$7,0*
20,1,$1+$1,$6,$7,$8,$9,0*
20,1,$1+$1,$8,$9,$2,$3,0*%
G04 Aperture macros list end*
%ADD10C,1.800000*%
%ADD11C,1.600000*%
%ADD12RoundRect,0.250000X-0.550000X-0.550000X0.550000X-0.550000X0.550000X0.550000X-0.550000X0.550000X0*%
%ADD13R,1.143000X1.143000*%
%ADD14C,1.143000*%
%ADD15R,1.800000X1.800000*%
%ADD16RoundRect,0.250000X-0.350000X-0.350000X0.350000X-0.350000X0.350000X0.350000X-0.350000X0.350000X0*%
%ADD17C,1.200000*%
%ADD18C,2.100000*%
G04 APERTURE END LIST*
D10*
%TO.C,Volume*%
X168600000Y-111400000D03*
X171140000Y-111400000D03*
X173680000Y-111400000D03*
%TD*%
%TO.C,Audio out*%
X192504600Y-111682200D03*
X195044600Y-111682200D03*
%TD*%
D11*
%TO.C,C12*%
X175150000Y-106650000D03*
X175150000Y-104150000D03*
%TD*%
D12*
%TO.C,U1*%
X184380000Y-85380000D03*
D11*
X184380000Y-87920000D03*
X184380000Y-90460000D03*
X184380000Y-93000000D03*
X192000000Y-93000000D03*
X192000000Y-90460000D03*
X192000000Y-87920000D03*
X192000000Y-85380000D03*
%TD*%
%TO.C,R13*%
X186600000Y-108800000D03*
X186600000Y-101180000D03*
%TD*%
%TO.C,R4*%
X170000000Y-91000000D03*
X170000000Y-83380000D03*
%TD*%
%TO.C,C8*%
X190000000Y-74850000D03*
X190000000Y-72350000D03*
%TD*%
%TO.C,R6*%
X180000000Y-81000000D03*
X180000000Y-88620000D03*
%TD*%
D13*
%TO.C,U2*%
X169100000Y-100200000D03*
D14*
X167330000Y-100200000D03*
X165600000Y-100200000D03*
%TD*%
D15*
%TO.C,D1*%
X183000000Y-103400000D03*
D10*
X180460000Y-103400000D03*
%TD*%
D11*
%TO.C,R2*%
X159000000Y-85620000D03*
X159000000Y-78000000D03*
%TD*%
%TO.C,C5*%
X171000000Y-78000000D03*
X168500000Y-78000000D03*
%TD*%
%TO.C,R5*%
X181000000Y-78000000D03*
X173380000Y-78000000D03*
%TD*%
D16*
%TO.C,C2*%
X164500000Y-82000000D03*
D17*
X166000000Y-82000000D03*
%TD*%
D11*
%TO.C,R9*%
X195600000Y-81710000D03*
X195600000Y-74090000D03*
%TD*%
D10*
%TO.C,9V*%
X152500000Y-72500000D03*
X155040000Y-72500000D03*
%TD*%
D11*
%TO.C,C7*%
X169950000Y-73400000D03*
X172450000Y-73400000D03*
%TD*%
D18*
%TO.C,REF\u002A\u002A*%
X187000000Y-114400000D03*
%TD*%
D10*
%TO.C,Tone*%
X177860000Y-111400000D03*
X180400000Y-111400000D03*
X182940000Y-111400000D03*
%TD*%
%TO.C,Gain*%
X160920000Y-72575000D03*
X163460000Y-72575000D03*
X166000000Y-72575000D03*
%TD*%
D11*
%TO.C,R1*%
X152380000Y-89000000D03*
X160000000Y-89000000D03*
%TD*%
D18*
%TO.C,mount hole*%
X153000000Y-114000000D03*
%TD*%
D15*
%TO.C,D2*%
X180460000Y-98800000D03*
D10*
X183000000Y-98800000D03*
%TD*%
D11*
%TO.C,R10*%
X196800000Y-98800000D03*
X189180000Y-98800000D03*
%TD*%
%TO.C,C3*%
X166500000Y-95000000D03*
X169000000Y-95000000D03*
%TD*%
%TO.C,C6*%
X185000000Y-78000000D03*
X187500000Y-78000000D03*
%TD*%
%TO.C,R7*%
X176990000Y-73400000D03*
X184610000Y-73400000D03*
%TD*%
D18*
%TO.C,REF\u002A\u002A*%
X197000000Y-70500000D03*
%TD*%
D10*
%TO.C,Guitar in*%
X152282200Y-96295400D03*
X152282200Y-93755400D03*
%TD*%
D11*
%TO.C,C10*%
X173950000Y-95000000D03*
X176450000Y-95000000D03*
%TD*%
D16*
%TO.C,C1*%
X152500000Y-82500000D03*
D17*
X154000000Y-82500000D03*
%TD*%
D11*
%TO.C,R11*%
X160600000Y-99400000D03*
X160600000Y-107020000D03*
%TD*%
%TO.C,R12*%
X171420000Y-107000000D03*
X163800000Y-107000000D03*
%TD*%
%TO.C,C9*%
X196800000Y-88150000D03*
X196800000Y-90650000D03*
%TD*%
%TO.C,R3*%
X156190000Y-94000000D03*
X163810000Y-94000000D03*
%TD*%
%TO.C,R8*%
X175000000Y-83380000D03*
X175000000Y-91000000D03*
%TD*%
%TO.C,C11*%
X173900000Y-99800000D03*
X176400000Y-99800000D03*
%TD*%
%TO.C,C4*%
X164000000Y-90500000D03*
X164000000Y-88000000D03*
%TD*%
M02*
